<svg xmlns="http://www.w3.org/2000/svg" xmlns:xlink="http://www.w3.org/1999/xlink" width="102" height="102" viewBox="0 0 102 102">
  <defs>
    <filter id="Ellipse_45" x="0" y="0" width="102" height="102" filterUnits="userSpaceOnUse">
      <feOffset dy="3" input="SourceAlpha"/>
      <feGaussianBlur stdDeviation="10" result="blur"/>
      <feFlood flood-opacity="0.039"/>
      <feComposite operator="in" in2="blur"/>
      <feComposite in="SourceGraphic"/>
    </filter>
  </defs>
  <g id="Call" transform="translate(-290.838 -399.838)">
    <g transform="matrix(1, 0, 0, 1, 290.84, 399.84)" filter="url(#Ellipse_45)">
      <circle id="Ellipse_45-2" data-name="Ellipse 45" cx="21" cy="21" r="21" transform="translate(30 27)" fill="#ef9244"/>
    </g>
    <g id="Phone" transform="translate(331.838 437.838)">
      <rect id="Rectangle_320" data-name="Rectangle 320" width="20" height="20" fill="none"/>
      <path id="Path_110" data-name="Path 110" d="M11.229,13.821l2.073-1.9a.635.635,0,0,1,.518-.173l.346.173L19,14.166c.346.173.346.346.346.691a4.38,4.38,0,0,1-1.382,3.11,4.949,4.949,0,0,1-3.628,1.382A10.526,10.526,0,0,1,9.5,18.139a22.647,22.647,0,0,1-4.837-3.455,29.426,29.426,0,0,1-2.591-3.8,23.879,23.879,0,0,1-1.728-3.8A10.631,10.631,0,0,1,0,3.8,4.54,4.54,0,0,1,1.209,1.209,5.254,5.254,0,0,1,4.492,0a.9.9,0,0,1,.691.346L7.774,5.183a.6.6,0,0,0,.173.346.635.635,0,0,1-.173.518L5.528,8.12a.771.771,0,0,0,0,.864A16.5,16.5,0,0,0,7.6,11.747a17.443,17.443,0,0,0,2.764,2.246C10.711,14.166,11.056,14.166,11.229,13.821Z" transform="translate(0.455 0.455)" fill="#fff"/>
    </g>
  </g>
</svg>
