<svg xmlns="http://www.w3.org/2000/svg" width="59.597" height="65.117" viewBox="0 0 59.597 65.117">
  <path id="Profile_Menu_Outline" data-name="Profile Menu Outline" d="M22.372,6.315a9.666,9.666,0,0,0-3.826,8c.2,2.405.685,5.538.685,5.538s-.967.525-.967,2.637c.336,5.3,2.11,3.015,2.475,5.34.876,5.6,2.882,4.606,2.882,7.664,0,5.093-2.1,7.475-8.658,10.3C8.384,48.627,1.6,52.194,1.6,58.372v3.089H57.2V58.372c0-6.177-6.786-9.745-13.368-12.577-6.558-2.822-8.652-5.2-8.652-10.3,0-3.058,2-2.06,2.878-7.664.367-2.326,2.137-.037,2.481-5.34,0-2.112-.969-2.637-.969-2.637s.488-3.131.683-5.538a9.545,9.545,0,0,0-7.1-9.563c-1.029-1.05-1.724-2.722,1.44-4.4-6.919-.324-8.529,3.3-12.212,5.957Z" transform="translate(0.4 1.656)" fill="none" stroke="#000" stroke-width="4"/>
</svg>
