<svg id="Wallet" xmlns="http://www.w3.org/2000/svg" width="52.116" height="39.087" viewBox="0 0 52.116 39.087">
  <path id="Path_346" data-name="Path 346" d="M4,10.172A2.172,2.172,0,0,1,6.172,8h8.686a2.172,2.172,0,1,1,0,4.343H6.172A2.172,2.172,0,0,1,4,10.172Z" transform="translate(4.686 2.858)"/>
  <path id="Path_347" data-name="Path 347" d="M8.686,3A8.686,8.686,0,0,0,0,11.686V33.4a8.686,8.686,0,0,0,8.686,8.686H43.43A8.686,8.686,0,0,0,52.116,33.4V11.686A8.686,8.686,0,0,0,43.43,3ZM43.43,7.343H8.686a4.343,4.343,0,0,0-4.343,4.343v15.2h43.43v-15.2A4.343,4.343,0,0,0,43.43,7.343ZM47.773,31.23H4.343V33.4a4.343,4.343,0,0,0,4.343,4.343H43.43A4.343,4.343,0,0,0,47.773,33.4Z" transform="translate(0 -3)" fill-rule="evenodd"/>
</svg>
