<svg xmlns="http://www.w3.org/2000/svg" width="38.518" height="35.434" viewBox="0 0 38.518 35.434">
  <path id="Address_Book" data-name="Address Book" d="M20.522,9.743l.865,2.659a8.011,8.011,0,0,1,2.795-1.542,16.964,16.964,0,0,1,3.068-.7l-.834-2.566a18.264,18.264,0,0,0-3.064.714,10.162,10.162,0,0,0-2.829,1.437Zm1.8,5.536.865,2.659A8.011,8.011,0,0,1,25.98,16.4a16.963,16.963,0,0,1,3.068-.7l-.834-2.566a18.264,18.264,0,0,0-3.064.714,10.066,10.066,0,0,0-2.829,1.437Zm1.8,5.534.865,2.659a8.011,8.011,0,0,1,2.795-1.542,16.963,16.963,0,0,1,3.068-.7l-.834-2.566a18.263,18.263,0,0,0-3.064.714,10.081,10.081,0,0,0-2.829,1.437ZM10.425,25.025l.834,2.566a16.945,16.945,0,0,1,2.893-1.234,8.045,8.045,0,0,1,3.167-.394L16.454,23.3a10.181,10.181,0,0,0-3.132.5,18.321,18.321,0,0,0-2.9,1.222Zm-3.6-11.07.834,2.566a17.14,17.14,0,0,1,2.893-1.234,8.045,8.045,0,0,1,3.167-.394l-.863-2.66a10.213,10.213,0,0,0-3.134.5,18.321,18.321,0,0,0-2.9,1.222Zm1.8,5.536.834,2.566a16.944,16.944,0,0,1,2.893-1.234,8.045,8.045,0,0,1,3.167-.394l-.863-2.66a10.181,10.181,0,0,0-3.132.5,18.235,18.235,0,0,0-2.9,1.224ZM21.431,2.4a10.2,10.2,0,0,0-5.921,4.962,10.194,10.194,0,0,0-7.7-.533,17.659,17.659,0,0,0-7.7,5.094L8.051,36.331a.967.967,0,0,0,1.7.278,11.834,11.834,0,0,1,6.316-4.347,7.453,7.453,0,0,1,7.088,1.121.954.954,0,0,0,1.477-.52A7.448,7.448,0,0,1,29.7,27.834a11.834,11.834,0,0,1,7.672-.194.962.962,0,0,0,1.212-1.219L30.652,2a17.674,17.674,0,0,0-9.221.4Zm-.218,26.85a10.1,10.1,0,0,0-6.091.085,16.559,16.559,0,0,0-5.233,2.722L3.6,12.7a12.861,12.861,0,0,1,5.162-2.95,7.575,7.575,0,0,1,6.358.733l6.1,18.765Zm13.368-5.215a16.547,16.547,0,0,0-5.837.875,10.09,10.09,0,0,0-4.978,3.51L17.67,9.656a7.564,7.564,0,0,1,4.712-4.33,12.859,12.859,0,0,1,5.908-.647l6.29,19.359Z" transform="translate(-0.11 -1.574)" fill="#ef9244"/>
</svg>
