<svg xmlns="http://www.w3.org/2000/svg" width="57" height="57" viewBox="0 0 57 57"><g transform="translate(-1587 -385)"><rect width="57" height="57" rx="8" transform="translate(1587 385)" fill="#ccf0de"/><g transform="translate(-414 -2119.321)"><path d="M28.406,11.25H7.594a4.222,4.222,0,0,0-4.219,4.219V27.281A4.222,4.222,0,0,0,7.594,31.5H28.406a4.222,4.222,0,0,0,4.219-4.219V15.469A4.222,4.222,0,0,0,28.406,11.25Z" transform="translate(2011.625 2517.545)"/><path d="M0,17.093v0c0-1.553,1.83-2.817,3.093-3.1L9.687,12.7v3.053H3.445A4.485,4.485,0,0,0,0,17.091Zm23.625-1.336H15.314V11.6l4.3-.84a3.321,3.321,0,0,1,3.037.907,4.044,4.044,0,0,1,.977,2.643v1.441Z" transform="translate(2016.125 2511.35)"/><path d="M3.545,3.408V8.944H0l5.37,5.317,5.264-5.317H7.089V3.408Z" transform="translate(2033.942 2530.583) rotate(180)"/></g></g></svg>