<?xml version="1.0" encoding="utf-8"?>
<!-- Generator: Adobe Illustrator 26.0.1, SVG Export Plug-In . SVG Version: 6.00 Build 0)  -->
<svg version="1.1" id="Layer_1" xmlns="http://www.w3.org/2000/svg" xmlns:xlink="http://www.w3.org/1999/xlink" x="0px" y="0px"
	 viewBox="0 0 500 500" style="enable-background:new 0 0 500 500;" xml:space="preserve">
<style type="text/css">
	.st0{fill:#FF1A00;}
	.st1{fill:#FFFFFF;}
</style>
<g>
	<path class="st0" d="M384.74,314.31H169.15c-13.64,0-24.7-11.06-24.7-24.7V71.44c0-13.64,11.06-24.7,24.7-24.7h215.59
		c13.64,0,24.7,11.06,24.7,24.7v218.17C409.44,303.25,398.38,314.31,384.74,314.31z"/>
	<polygon class="st1" points="218.71,171.99 236.6,235.74 333.34,235.18 304.82,125.02 	"/>
	<g>
		<path d="M482.98,116.34c-4.47-15.89-15-23.92-31.49-23.94c-11.96-0.02-23.93,0-35.89,0c-1.97,0-3.94,0-6.05,0
			c0,4.72,0,8.91,0,13.47c1.81,0,3.26,0,4.72,0c12.37,0,24.74-0.02,37.1,0.01c12.53,0.02,18.85,6.3,18.85,18.82
			c0.02,73.27,0.01,146.54,0,219.8c0,1.42-0.12,2.84-0.19,4.25c-128.86,0-257.3,0-385.83,0c-0.08-1.24-0.2-2.16-0.2-3.09
			c-0.01-74.07-0.03-148.15,0.02-222.22c0.01-10.95,6.68-17.49,17.66-17.55c12.91-0.07,25.81-0.02,38.72-0.02c1.43,0,2.85,0,4.26,0
			c0-4.81,0-9.01,0-13.09c-0.64-0.18-0.9-0.31-1.15-0.31c-13.58-0.03-27.15-0.07-40.73-0.06c-19.7,0.02-32.18,12.55-32.18,32.31
			c-0.01,81.47-0.01,162.94,0,244.4c0,19.83,12.37,32.2,32.17,32.21c44.1,0.01,88.19,0,132.29,0c1.55,0,3.11,0,4.92,0
			c-2.12,16.92-4.16,33.26-6.23,49.75h-54.25c-3.87,0-7.01,3.14-7.01,7.01v0.17c0,3.87,3.14,7.01,7.01,7.01h194.77
			c3.87,0,7.01-3.14,7.01-7.01v-0.17c0-3.87-3.14-7.01-7.01-7.01h-53.82c-2.07-16.65-4.11-32.99-6.19-49.75c2,0,3.6,0,5.19,0
			c44.36,0,88.73,0.02,133.09-0.01c15.56-0.01,26.53-8.6,30.4-23.66c0.13-0.49,0.45-0.94,0.68-1.4c0-86.32,0-172.63,0-258.95
			C483.4,116.98,483.08,116.69,482.98,116.34z M247.31,451.07c0.86-7.26,1.68-14.34,2.55-21.42c1.01-8.25,2.15-16.49,3.05-24.75
			c0.27-2.45,1.03-3.48,3.68-3.46c13.69,0.12,27.38,0.08,41.07,0.03c1.97-0.01,3.29,0.25,3.57,2.65
			c1.83,15.54,3.77,31.07,5.72,46.95H247.31z M469.69,375.33c-1.29,7.59-8.21,12.63-16.88,12.72c-11.29,0.12-22.58,0.03-33.87,0.03
			c-34.81,0-69.61,0.03-104.42-0.01c-21.63-0.03-43.27-0.25-64.9-0.24c-49.05,0.03-98.1,0.17-147.15,0.24
			c-9.2,0.01-16.09-4.46-17.8-12.09c-0.89-3.98-0.62-8.23-0.91-12.88c129.19,0,257.6,0,386.04,0
			C469.81,367.35,470.35,371.44,469.69,375.33z"/>
		<path d="M190.63,247.62c1.14,0.09,2.76,1.83,3.12,3.1c3.88,13.8,7.55,27.65,11.29,41.49c1.74,6.45,4.78,8.17,11.36,6.47
			c4.8-1.25,9.59-2.51,14.37-3.82c6.53-1.79,8.23-4.77,6.49-11.35c-3.6-13.6-7.24-27.18-10.81-40.78c-0.32-1.23-0.27-2.55-0.39-3.83
			c0.43-0.2,0.85-0.39,1.28-0.59c2.71,4.41,6.87,4.3,11.13,4.3c29.16-0.03,58.32-0.02,87.48,0.12c1.6,0.01,3.76,0.77,4.69,1.95
			c5.58,7.05,13.04,9.04,21.07,5.22c7.07-3.36,10.15-10.56,7.89-19c-10.44-39.08-20.92-78.16-31.44-117.22
			c-2.25-8.37-8.8-12.81-17.15-11.89c-8.22,0.9-14.26,6.92-14.61,15.09c-0.11,2.57-1.12,3.83-3.16,4.96
			c-4.47,2.46-8.85,5.08-13.26,7.64c-21.47,12.49-42.98,24.9-64.34,37.58c-2.14,1.27-4.4,3.95-4.75,6.25
			c-0.43,2.81-1.65,3.55-3.82,4.12c-8.42,2.21-16.83,4.46-25.26,6.67c-16.41,4.29-25.81,19.01-22.65,35.5
			C162.58,237.45,172.47,246.17,190.63,247.62z M217.12,284.15c-3.58-13.37-7.06-26.4-10.63-39.73c2.07-0.55,3.7-0.98,5.65-1.5
			c3.56,13.25,7.03,26.19,10.62,39.56C220.9,283.04,219.2,283.54,217.12,284.15z M313.57,115.55c0.45,0.91,1.25,2.01,1.59,3.24
			c3.92,14.36,7.79,28.74,11.64,43.12c6.39,23.84,12.76,47.68,19.08,71.53c0.31,1.18,0.55,3.21-0.05,3.64
			c-2.26,1.63-3.5,0.43-4.16-2.08c-3.62-13.75-7.34-27.47-11.01-41.2c-6.59-24.62-13.16-49.24-19.77-73.85
			C310.34,117.89,309.52,115.88,313.57,115.55z M227.4,175.89c23.93-13.8,47.8-27.71,72.24-41.91c8.49,31.68,16.9,63.03,25.44,94.91
			c-5.8,0-11.01,0.01-16.21,0c-21.89-0.06-43.78-0.19-65.67-0.14c-3.04,0.01-4.37-0.74-5.17-3.89
			c-3.78-14.94-7.87-29.81-11.93-44.68C225.6,178.32,225.31,177.1,227.4,175.89z M174.38,205.64c1.98-2.84,4.78-5.99,7.88-7.01
			c10.53-3.49,21.36-6.1,32.48-9.16c3.22,11.98,6.35,23.58,9.59,35.61c-5.43,1.48-10.56,2.9-15.7,4.29
			c-4.53,1.22-9.07,2.42-13.62,3.6c-10.47,2.73-18.27-1.85-21.31-12.21C172.17,215.55,171.12,210.3,174.38,205.64z"/>
		<path d="M358.32,140.6c5.29-2.89,10.58-5.81,15.6-9.13c1.93-1.27,3.12-3.67,3.94-4.68c0.13-6.78-5.54-10.23-10.57-7.6
			c-5.45,2.85-10.75,6.02-16.01,9.23c-3.66,2.24-4.67,6.33-2.71,9.73C350.5,141.54,354.52,142.68,358.32,140.6z"/>
		<path d="M355.22,165.05c0.94,3.36,3.3,5.07,6.98,5.52c7.05-2.01,14.17-3.78,21.11-6.12c3.2-1.08,4.53-5.02,3.42-8.1
			c-1.23-3.42-3.86-5.59-7.38-4.86c-6.79,1.41-13.51,3.25-20.13,5.32C355.79,157.88,354.24,161.57,355.22,165.05z"/>
		<path d="M379.5,184.76c0,0,0-0.01,0-0.01c-2.95,0-5.89,0-8.84,0c-0.27,0-0.54,0-0.8,0.01c-3.89,0.21-6.44,2.46-6.82,6.01
			c-0.4,3.71,1.36,7.21,5.05,7.47c7.42,0.53,14.93,0.5,22.35-0.01c3.57-0.24,5.73-4.18,5.24-7.41c-0.53-3.48-3.22-5.91-6.93-6.04
			C385.67,184.67,382.58,184.76,379.5,184.76z"/>
	</g>
	<path class="st0" d="M84.76,112.16H25.17c-4.86,0-8.79-3.94-8.79-8.79V43.78c0-4.86,3.94-8.79,8.79-8.79h59.59
		c4.86,0,8.79,3.94,8.79,8.79v59.59C93.55,108.22,89.61,112.16,84.76,112.16z"/>
	<g>
		<path class="st1" d="M43.75,67.17c0.08-4.71,2.02-10.5,10.61-10.5c6.88,0,10.19,3.53,10.19,9.4c0,4.53-2,6.67-4.44,7.57v0.11
			c2.74,0.84,5.46,3.22,5.46,8.42c0,6.6-2.53,11.59-11.45,11.59c-7.78,0-10.59-4.35-10.74-10.32h7.91c0.13,2.46,0.7,4.26,2.91,4.26
			c2.21,0,2.89-1.67,2.89-5.17c0-3.99-0.91-5.4-4.77-5.4h-1.92v-6.17h1.77c3.16,0,4.2-0.72,4.2-4.33c0-2.58-0.44-3.9-2.46-3.9
			c-2.06,0-2.44,2.09-2.53,4.45H43.75z"/>
	</g>
</g>
</svg>
