<svg xmlns="http://www.w3.org/2000/svg" xmlns:xlink="http://www.w3.org/1999/xlink" width="114" height="114" viewBox="0 0 114 114">
  <defs>
    <clipPath id="clip-path">
      <rect id="Rectangle_763" data-name="Rectangle 763" width="69.398" height="55.322" fill="#ef9244"/>
    </clipPath>
  </defs>
  <g id="Delicious" transform="translate(-253 -4467)">
    <circle id="Ellipse_14" data-name="Ellipse 14" cx="57" cy="57" r="57" transform="translate(253 4467)" fill="#fff"/>
    <g id="Group_421" data-name="Group 421" transform="translate(275.481 4496.789)">
      <g id="Group_35" data-name="Group 35" clip-path="url(#clip-path)">
        <path id="Path_19" data-name="Path 19" d="M12.867,101.451a4.313,4.313,0,0,1,1.285-2.933,11.88,11.88,0,0,1,5.238-3.073,25.734,25.734,0,0,1,10.168-1.171,2.15,2.15,0,0,0,1.716-.525,15.25,15.25,0,0,1,7.2-3.042,26.915,26.915,0,0,1,14.6,1.058,12.358,12.358,0,0,1,4.037,2.409,1.163,1.163,0,0,0,.817.194A26.906,26.906,0,0,1,70.3,95.724a10.967,10.967,0,0,1,4.491,2.839,4.246,4.246,0,0,1,1.238,2.888Z" transform="translate(-9.831 -68.89)" fill="#ef9244"/>
        <path id="Path_20" data-name="Path 20" d="M.008,144.379H69.371a7.47,7.47,0,0,1-.625,3.515,16.091,16.091,0,0,1-9.138,9.3c-3.108,1.274-6.309,2.321-9.426,3.574a23.182,23.182,0,0,0-3.714,2,3.7,3.7,0,0,0-1.884,2.846h-.708c-6.1,0-12.2-.007-18.3.012-.538,0-.694-.166-.9-.676A5.116,5.116,0,0,0,23.35,163.1a17.6,17.6,0,0,0-5.518-2.927c-2.767-1.056-5.61-1.932-8.317-3.12A15.673,15.673,0,0,1,.224,146.361a9.827,9.827,0,0,1-.212-1.322,5.571,5.571,0,0,1,0-.659m66.006,2.837H3.442c.118.278.2.5.3.7a13.932,13.932,0,0,0,4.869,5.477c2.048,1.356,4.43,1.923,6.671,2.827,2.7,1.09,5.421,2.149,8.021,3.444a14.059,14.059,0,0,1,3.172,2.636,1.384,1.384,0,0,0,1.061.5c4.4-.012,8.809-.033,13.213.012,1.129.012,2.131-.013,2.731-1.172a2.549,2.549,0,0,1,.659-.632,17.579,17.579,0,0,1,5.186-2.959c3.111-1.208,6.279-2.273,9.366-3.537a13.564,13.564,0,0,0,7.322-7.293" transform="translate(0 -110.308)" fill="#ef9244"/>
        <path id="Path_21" data-name="Path 21" d="M138.073.571a14.728,14.728,0,0,0,.568,7.565,8.7,8.7,0,0,0,.786,1.65,6.652,6.652,0,0,1,.184,7.03,11.461,11.461,0,0,1-1.182,1.8,10.524,10.524,0,0,0-.222-6.2,6.081,6.081,0,0,0-.816-1.783,6.746,6.746,0,0,1-1.176-5.148,10.6,10.6,0,0,1,1.41-4.319c.13-.212.3-.4.448-.6" transform="translate(-104.01 -0.436)" fill="#ef9244"/>
        <path id="Path_22" data-name="Path 22" d="M197.775,18.658a10.7,10.7,0,0,0-1.561-8.73A5.2,5.2,0,0,1,195.43,6.9,10.931,10.931,0,0,1,196.79,1.42a3.836,3.836,0,0,1,.639-.806,14.187,14.187,0,0,0,.215,6.648,9.973,9.973,0,0,0,1.028,2.459c1.674,2.616,1.37,5.165-.084,7.718-.241.424-.541.814-.814,1.219" transform="translate(-149.311 -0.469)" fill="#ef9244"/>
        <path id="Path_23" data-name="Path 23" d="M77.855,18.218a10.035,10.035,0,0,0-.15-6.3,5.78,5.78,0,0,0-.8-1.716,6.748,6.748,0,0,1-1.171-5.217A10.467,10.467,0,0,1,77.142.74c.131-.212.295-.4.543-.74-.1.908-.215,1.635-.266,2.367a12.047,12.047,0,0,0,1.763,7.416c1.774,2.833.488,6.508-1.327,8.436" transform="translate(-57.798)" fill="#ef9244"/>
      </g>
    </g>
  </g>
</svg>
