<svg xmlns="http://www.w3.org/2000/svg" width="42" height="42" viewBox="0 0 42 42">
  <g id="Double_checked" data-name="Double checked" transform="translate(0.063 0.062)">
    <g id="invisible_box" data-name="invisible box" transform="translate(-0.063 -0.062)">
      <rect id="Rectangle_35" data-name="Rectangle 35" width="42" height="42" transform="translate(0 0)" fill="none"/>
    </g>
    <g id="icons_Q2" data-name="icons Q2" transform="translate(1.714 11.307)">
      <g id="Group_15" data-name="Group 15">
        <path id="Path_10" data-name="Path 10" d="M19.562,35.358l-7.034-6.946a1.846,1.846,0,0,1-.176-2.374,1.671,1.671,0,0,1,2.638-.176l5.8,5.8L38.906,13.552a1.759,1.759,0,0,1,2.462,2.462L22.024,35.358a1.671,1.671,0,0,1-2.462,0Z" transform="translate(-3.194 -13.2)" fill="#fff"/>
        <path id="Path_11" data-name="Path 11" d="M10.791,37.549a1.759,1.759,0,0,1-1.231-.528L2.526,29.988a1.671,1.671,0,0,1,0-2.462,1.671,1.671,0,0,1,2.462,0l7.034,7.034a1.671,1.671,0,0,1,0,2.462A1.759,1.759,0,0,1,10.791,37.549Z" transform="translate(-1.985 -14.864)" fill="#fff"/>
        <path id="Path_12" data-name="Path 12" d="M21.757,27.092a1.759,1.759,0,0,1-1.231-.528,1.671,1.671,0,0,1,0-2.462L31.077,13.552a1.759,1.759,0,0,1,2.462,2.462L22.988,26.565A1.759,1.759,0,0,1,21.757,27.092Z" transform="translate(-4.158 -13.2)" fill="#fff"/>
      </g>
    </g>
  </g>
</svg>
