<svg xmlns="http://www.w3.org/2000/svg" width="114" height="114" viewBox="0 0 114 114">
  <g id="Expert_Support" data-name="Expert Support" transform="translate(-1541 -1529)">
    <circle id="Ellipse_7" data-name="Ellipse 7" cx="57" cy="57" r="57" transform="translate(1541 1529)" fill="#fff"/>
    <g id="Group_448" data-name="Group 448" transform="translate(1574.784 1556.276)">
      <path id="Path_49" data-name="Path 49" d="M418.687,127.032h-.471l-.179.014c.214-.014.432-.014.649-.014" transform="translate(-392.271 -67.159)"/>
      <path id="Path_50" data-name="Path 50" d="M411.512,89.108a16.8,16.8,0,0,0-12.995-13.091,1.506,1.506,0,0,0-1.282.27,14.133,14.133,0,0,1-8.171,2.57,19.364,19.364,0,0,1-4.582-.354,14.542,14.542,0,0,1-5.343-2.451.57.57,0,0,0-.493-.11,16.71,16.71,0,0,0-13.443,13.2c-.137.662-.186,1.342-.277,2.014-.015.107-.036.214-.055.32V92.79a5.632,5.632,0,0,0,2.766,3.518,20.783,20.783,0,0,0,5.652,2.457,44.642,44.642,0,0,0,8.269,1.571c1.495.148,2.994.243,4.447.358h4.811c1.649-.137,3.3-.239,4.944-.427a37.825,37.825,0,0,0,10.955-2.7,17.942,17.942,0,0,0,2.215-1.172,5.961,5.961,0,0,0,2.88-3.369v-2.1c-.1-.609-.182-1.22-.3-1.826" transform="translate(-364.87 -40.822)"/>
      <path id="Path_51" data-name="Path 51" d="M373.756,33.833a3.134,3.134,0,0,0,3.195-3.178q.009-3.1,0-6.2a3.039,3.039,0,0,0-1.545-2.729.336.336,0,0,1-.184-.385c.076-.553.12-1.111.216-1.66a16.083,16.083,0,0,1,31.883,1.664.369.369,0,0,1-.21.4,3.026,3.026,0,0,0-1.508,2.689q-.009,3.128,0,6.256a3.338,3.338,0,0,0,.127.883.336.336,0,0,1-.167.454,15.487,15.487,0,0,1-7.038,2.289.446.446,0,0,1-.314-.153,1.9,1.9,0,0,0-1.473-.68c-.818,0-1.636-.005-2.454,0a1.881,1.881,0,1,0,0,3.763c.808,0,1.616,0,2.425,0a1.9,1.9,0,0,0,1.608-.829.551.551,0,0,1,.326-.2c.551-.088,1.109-.133,1.659-.227a15.8,15.8,0,0,0,6.55-2.538.323.323,0,0,1,.4-.01,3.214,3.214,0,0,0,4.773-2.863c-.015-2.025,0-4.051,0-6.076a3.127,3.127,0,0,0-1.6-2.827.463.463,0,0,1-.191-.317,18.492,18.492,0,0,0-2.928-9.033,18.75,18.75,0,0,0-13.084-8.611c-.587-.1-1.182-.156-1.773-.233h-2.335c-.087.017-.173.04-.26.051-.632.08-1.27.133-1.9.242A18.99,18.99,0,0,0,372.332,21.35a.379.379,0,0,1-.212.35,3.043,3.043,0,0,0-1.59,2.762q-.009,3.1,0,6.2a3.132,3.132,0,0,0,3.227,3.175" transform="translate(-367.784 -3.489)"/>
      <path id="Path_52" data-name="Path 52" d="M402.671,40.592c1.024-.063,2.053-.028,3.08-.007a3.232,3.232,0,0,1,1.7.607.705.705,0,0,0,.461.11q.956-.169,1.9-.4a.651.651,0,0,0,.382-.28c.424-.789.877-1.57,1.22-2.4a13.239,13.239,0,0,0,.842-8.141,12.567,12.567,0,0,0-24.846,2.9A15.17,15.17,0,0,0,392.892,44.3a10.7,10.7,0,0,0,6.5,2.727c.611.036,1.227-.011,1.841-.02,0-.029,0-.058.008-.088-.071-.051-.141-.1-.212-.154a3.382,3.382,0,0,1-1.36-3.684,3.34,3.34,0,0,1,3-2.487" transform="translate(-376.48 -12.097)"/>
    </g>
  </g>
</svg>
