<svg xmlns="http://www.w3.org/2000/svg" xmlns:xlink="http://www.w3.org/1999/xlink" width="38.44" height="31.659" viewBox="0 0 38.44 31.659">
  <defs>
    <clipPath id="clip-path">
      <rect id="Rectangle_34" data-name="Rectangle 34" width="38.44" height="31.659" fill="none"/>
    </clipPath>
  </defs>
  <g id="Flutterwave" clip-path="url(#clip-path)">
    <path id="Path_1118" data-name="Path 1118" d="M19.015,4.927c1.317-.778,2.532-1.474,3.726-2.205a18.156,18.156,0,0,1,7.106-2.6,8.305,8.305,0,0,1,5.3.741,6.3,6.3,0,0,1,3.27,5.463,14.943,14.943,0,0,1-1.3,6.622,25.747,25.747,0,0,1-4.761,7.707,3.506,3.506,0,0,0-.884,2.94c.277,3.219-.693,6.45-4.1,7.6a10.272,10.272,0,0,1-3.59.4,11.706,11.706,0,0,1-3.178-.672,3.818,3.818,0,0,0-2.636.034,12.206,12.206,0,0,1-6.295.5,6.187,6.187,0,0,1-4.869-5.8,11.892,11.892,0,0,1,.149-2.569,2.429,2.429,0,0,0-.47-2.018c-1.26-1.657-2.482-3.351-3.606-5.1A17.468,17.468,0,0,1,.013,7.418C-.2,3.513,2.2.408,6.291.254,10.057.112,13.3,1.441,16.425,3.278c.855.5,1.675,1.064,2.59,1.649M18.93,26.647c2.57-.511,7.356-4.4,8.442-5.9-.793-3.19-5.8-9.919-8.177-11-3.277,2.486-7.856,8.51-7.975,11.412a31.139,31.139,0,0,0,7.71,5.492M16.322,7.406a3.711,3.711,0,0,0-.586-.674A18.577,18.577,0,0,0,7.385,3.355,3.3,3.3,0,0,0,3.5,6.711a10.513,10.513,0,0,0,.563,3.874,24.665,24.665,0,0,0,3.7,6.624,7.34,7.34,0,0,0,.725.712c1.7-4.281,4.758-7.373,7.831-10.516M30.087,18.161c1.027-1.673,1.91-3.127,2.807-4.572a12.68,12.68,0,0,0,2.05-6.656A3.224,3.224,0,0,0,31.8,3.563a12.727,12.727,0,0,0-6.829,1.9C23.958,5.995,23.035,6.7,21.957,7.4a41.061,41.061,0,0,1,8.13,10.756M23.922,28.218c2.693.182,4.3-1.065,4.145-3.01l-4.145,3.01M10.4,25.106c.192,2.269,1.857,3.426,3.463,2.7l-3.463-2.7" transform="translate(0 0)"/>
  </g>
</svg>
