<?xml version="1.0" encoding="utf-8"?>
<!-- Generator: Adobe Illustrator 26.0.1, SVG Export Plug-In . SVG Version: 6.00 Build 0)  -->
<svg version="1.1" id="Layer_1" xmlns="http://www.w3.org/2000/svg" xmlns:xlink="http://www.w3.org/1999/xlink" x="0px" y="0px"
	 viewBox="0 0 500 500" style="enable-background:new 0 0 500 500;" xml:space="preserve">
<style type="text/css">
	.st0{fill:#FF1A00;}
	.st1{fill:#FFFFFF;}
</style>
<g>
	<g>
		<path class="st0" d="M448.69,345.66H73.36V128.57c0-10.54,8.54-19.08,19.08-19.08h337.17c10.54,0,19.08,8.54,19.08,19.08V345.66z"
			/>
		<path class="st1" d="M276.13,176.28H124.25c-6.15,0-11.13-4.98-11.13-11.13V77.67c0-6.15,4.98-11.13,11.13-11.13h151.88
			c6.15,0,11.13,4.98,11.13,11.13v87.47C287.27,171.29,282.28,176.28,276.13,176.28z"/>
		<path class="st1" d="M70.97,340.89l-0.8-66.8c0,0,20.68-32.6,29.42-0.8s0,30.22,0,30.22l32.6-36.58l38.17-34.99
			c0,0,42.94,6.36,19.88,27.04c-23.06,20.68-36.58,27.83-36.58,27.83l19.08,3.18l6.36,16.7l19.08,16.7l18.29,11.13l-67.59,83.5
			L70.97,340.89z"/>
		<polygon class="st1" points="479.18,315.44 331.8,314.91 343.46,191.39 465.92,191.92 		"/>
		<g>
			<path d="M93.57,316.89c0-13.06,0.01-26.12-0.01-39.17c0-1.74,0.02-3.52-0.35-5.2c-0.84-3.75-3.39-5.77-7.2-5.64
				c-3.82,0.13-6.11,2.43-6.85,6.14c-0.25,1.26-0.12,2.61-0.12,3.91c-0.01,19.47,0,38.95-0.01,58.42c0,1.31,0.09,2.63-0.08,3.92
				c-0.5,3.85-3.4,6.35-7.16,6.15c-3.94-0.21-6.18-2.51-6.57-6.28c-0.31-3.02-0.1-6.1-0.1-9.15c0-18.17-0.03-36.33,0.01-54.5
				c0.03-13.46,8.7-22.87,21.01-22.89c12.54-0.03,21.65,9.47,21.81,22.75c0.03,2.29,0,4.58,0,8.04c1.96-1.81,3.21-2.88,4.38-4.04
				c16.76-16.74,33.4-33.6,50.29-50.21c12.37-12.17,31.95-7.16,36.38,9.23c2.22,8.23-0.05,15.48-6.1,21.52
				c-6.98,6.96-13.97,13.93-21.23,21.17c6.3,4.11,10.38,9.28,11.59,16.48c0.13,0.77,1.89,1.55,3.02,1.83
				c9.24,2.35,14.68,8.22,16.91,17.42c0.28,1.15,1.81,2.51,3.02,2.85c11.83,3.3,18.48,11.91,16.75,23.81
				c-0.64,4.38-3.25,9.17-6.39,12.38c-20.74,21.18-41.85,42-62.88,62.9c-3.5,3.48-7.51,3.71-10.4,0.89c-3.13-3.05-2.94-7,0.77-10.71
				c20.42-20.48,40.91-40.89,61.29-61.41c1.56-1.57,3.57-3.86,3.44-5.67c-0.18-2.52-1.65-5.51-3.55-7.2
				c-2.31-2.05-5.46-1.44-7.94,0.75c-1.31,1.15-2.52,2.45-3.96,3.4c-3.1,2.05-6.17,1.61-8.68-1.01c-2.5-2.62-2.65-5.75-0.71-8.79
				c0.85-1.33,2.14-2.36,3.17-3.58c2.68-3.19,2.57-6.95-0.24-9.77c-2.84-2.85-6.57-2.93-9.74-0.2c-0.66,0.57-1.25,1.22-1.9,1.8
				c-3.86,3.45-7.77,3.7-10.83,0.72c-3.11-3.03-2.9-6.91,0.58-10.78c0.78-0.86,1.66-1.64,2.37-2.56c2.31-2.99,2.04-6.95-0.78-9.4
				c-2.86-2.49-5.96-2.88-9.07-0.36c-1.01,0.82-1.88,1.82-2.88,2.66c-3.54,2.97-7.26,2.98-10.14,0.07
				c-2.67-2.7-2.67-7.07,0.28-10.17c2.9-3.05,6.09-5.82,9.08-8.79c9.48-9.42,18.94-18.87,28.39-28.34c4.29-4.3,4.75-8.44,1.38-11.74
				c-3.41-3.34-7.24-2.86-11.7,1.59c-24.49,24.43-48.97,48.86-73.4,73.34c-1.3,1.3-2.16,3.05-3.22,4.59
				C94.73,317.67,94.15,317.28,93.57,316.89z"/>
			<path d="M276.1,223.41c-11.75,0-23.49,0.03-35.24-0.02c-4.72-0.02-7.76-2.24-8.48-5.91c-0.78-3.98,1.51-7.66,5.54-8.49
				c1.97-0.4,4.03-0.43,6.05-0.43c21.46-0.03,42.93-0.02,64.39-0.01c1.45,0,2.91-0.02,4.34,0.14c4.71,0.52,7.41,3.36,7.27,7.57
				c-0.13,4.09-3.14,7.04-7.77,7.11c-8.84,0.14-17.69,0.05-26.54,0.05C282.48,223.41,279.29,223.41,276.1,223.41z"/>
			<path d="M260.42,306.16c-6.38,0-12.75,0.06-19.13-0.02c-5.64-0.07-8.89-2.79-9-7.29c-0.12-4.73,3.17-7.64,9.04-7.67
				c12.75-0.07,25.51-0.07,38.26,0c5.65,0.03,8.9,2.78,9.01,7.28c0.11,4.71-3.21,7.61-9.04,7.69
				C273.17,306.23,266.79,306.16,260.42,306.16z"/>
			<path d="M260.22,279.13c-6.38,0-12.75,0.06-19.13-0.02c-5.57-0.07-8.81-2.89-8.81-7.45c-0.01-4.53,3.21-7.45,8.8-7.49
				c12.9-0.11,25.8-0.1,38.69,0c5.61,0.05,8.82,2.95,8.82,7.48c0,4.55-3.25,7.39-8.8,7.47
				C273.27,279.19,266.75,279.13,260.22,279.13z"/>
			<path d="M257.07,251.28c-5.5,0-11.01,0.09-16.51-0.03c-5.16-0.11-8.32-3.09-8.28-7.52c0.03-4.25,3-7.23,8.03-7.3
				c11.15-0.17,22.31-0.18,33.46,0.03c5.05,0.09,7.9,3.13,7.85,7.45c-0.05,4.25-3.12,7.2-8.03,7.33
				C268.09,251.39,262.58,251.28,257.07,251.28z"/>
			<path d="M303.6,251.25c-3.04,0-6.09,0.17-9.12-0.04c-4.35-0.3-7.15-3.21-7.27-7.15c-0.12-4.06,2.39-7.24,6.81-7.48
				c6.35-0.34,12.74-0.34,19.08,0c4.44,0.24,6.97,3.41,6.87,7.44c-0.1,3.91-2.95,6.74-7.26,7.22c-0.29,0.03-0.58,0.03-0.87,0.03
				c-2.75,0-5.5,0-8.25,0C303.6,251.27,303.6,251.26,303.6,251.25z"/>
			<path d="M225.52,143.41c0.02,10.59-8.76,19.47-19.35,19.59c-10.87,0.11-19.8-8.63-19.87-19.46
				c-0.07-10.93,8.62-19.73,19.51-19.76C216.67,123.76,225.5,132.55,225.52,143.41z M205.46,149.05c3.12,0.06,5.97-2.68,5.72-5.82
				c-0.26-3.3-2.09-5.45-5.55-5.47c-3.41-0.02-5.38,1.93-5.67,5.32C199.68,146.32,202.23,148.99,205.46,149.05z"/>
			<path d="M232.4,143.22c0.06-10.95,8.78-19.52,19.77-19.44c10.79,0.08,19.63,9.17,19.43,19.94c-0.21,10.6-9.12,19.32-19.69,19.27
				C241,162.94,232.35,154.17,232.4,143.22z M246.33,143.81c0.17,2.91,1.98,4.88,5.34,5.2c3.08,0.29,6.13-2.52,5.96-5.6
				c-0.18-3.29-1.98-5.42-5.41-5.68C248.95,137.48,246.36,140.01,246.33,143.81z"/>
			<path d="M255.99,110.96c-2.9,0.01-5.81,0.17-8.7-0.03c-3.89-0.27-6.06-2.59-6.38-6.43c-0.3-3.7,2.18-6.87,6.12-7.07
				c6.07-0.31,12.18-0.3,18.26,0c3.87,0.19,6.6,3.5,6.23,7.02c-0.39,3.74-2.47,6.22-6.4,6.47
				C262.09,111.11,259.04,110.95,255.99,110.96z"/>
			<path d="M221.86,110.99c-2.75,0-5.51,0.15-8.25-0.04c-4.07-0.28-6.57-2.87-6.68-6.59c-0.11-3.75,2.25-6.78,6.24-6.97
				c6.06-0.29,12.16-0.26,18.22,0.04c3.91,0.19,5.88,2.97,6.1,6.7c0.22,3.58-2.6,6.49-6.52,6.78c-3.02,0.22-6.08,0.04-9.12,0.04
				C221.86,110.97,221.86,110.98,221.86,110.99z"/>
		</g>
		<path d="M143.14,152.55h-6.36c-2.96,0-5.37-2.4-5.37-5.37v0c0-2.96,2.4-5.37,5.37-5.37h6.36c2.96,0,5.37,2.4,5.37,5.37v0
			C148.5,150.15,146.1,152.55,143.14,152.55z"/>
		<path d="M167.26,152.55h-6.36c-2.96,0-5.37-2.4-5.37-5.37v0c0-2.96,2.4-5.37,5.37-5.37h6.36c2.96,0,5.37,2.4,5.37,5.37v0
			C172.63,150.15,170.22,152.55,167.26,152.55z"/>
		<path class="st0" d="M164.36,114.05H141.3c-1.62,0-2.93-1.31-2.93-2.93V95.25c0-1.62,1.31-2.93,2.93-2.93h23.06
			c1.62,0,2.93,1.31,2.93,2.93v15.87C167.29,112.74,165.98,114.05,164.36,114.05z"/>
	</g>
	<path d="M483.33,312.46c-1.34-16.36-2.68-32.72-4.03-49.08c-1.94-23.6-3.84-47.2-5.86-70.8c-0.54-6.31-2.56-7.98-8.96-8.08
		c-3.12-0.05-6.24-0.01-9.59-0.01c0-17.46-0.52-34.18,0.14-50.86c0.7-17.53-12.18-32.31-32.08-32.01
		c-40.69,0.61-81.39,0.18-122.08,0.18c-1.7,0-3.41,0-5.58,0c0-8.14,0.03-15.8-0.01-23.47c-0.06-12.19-7.74-19.93-19.85-19.95
		c-19.04-0.04-38.08-0.01-57.12-0.01c-31.83,0-63.66-0.03-95.49,0.02c-11.05,0.02-18.93,7.82-19.23,18.84
		c-0.08,3.05-0.02,6.1-0.02,9.16c0,5.02,0,10.04,0,15.41c-3.11,0-5.56-0.02-8.01,0c-18.5,0.15-30.42,12.16-30.45,30.7
		c-0.02,14.39,0,28.78,0,43.17c0,15.99,0.04,31.97-0.03,47.96c-0.01,3.7,1.09,6.61,4.72,8c5.37,2.06,9.49-1.42,9.5-8.05
		c0.02-30.09,0.17-60.17-0.06-90.25c-0.1-13.47,9.32-20,23.98-16.3c0,15.48-0.02,31.03,0.02,46.57c0,2.02,0,4.1,0.46,6.05
		c2.24,9.67,9.84,15.16,21.06,15.17c34.74,0.04,69.47,0.02,104.21,0.02c15.26,0,30.52,0.09,45.78-0.03
		c13.12-0.1,20.82-7.95,20.83-20.96c0.01-14.24,0-28.49,0-42.73c0-1.54,0-3.08,0-5.01c2.06,0,3.49,0,4.92,0
		c41.28,0,82.55-0.01,123.83,0.01c10.57,0,16.32,5.83,16.34,16.51c0.02,15.55,0.01,31.1,0.01,46.65c0,1.39,0,2.78,0,4.25
		c-3.05,0-5.44,0-8.34,0c0-3.49,0.07-6.65-0.01-9.81c-0.31-12.27-7.98-22.09-19.67-24.41c-4.21-0.84-8.68-0.49-13.03-0.49
		c-14.38,0.02-24.91,10.55-25.13,25.03c-0.05,3.15-0.01,6.31-0.01,9.77c-2.12,0.1-3.69,0.24-5.25,0.24
		c-9.01,0.02-18.02-0.06-27.03,0.05c-5.95,0.07-8.56,2.32-9.27,8.17c-0.63,5.18-0.83,10.42-1.24,15.63
		c-1.25,15.63-2.48,31.25-3.76,46.87c-1.62,19.82-3.41,39.62-4.87,59.45c-0.62,8.41,1.77,10.64,10.2,10.64
		c34.01,0.01,68.02,0,102.03,0.01c1.69,0,3.37,0.15,5.19,0.24c0,5.96,0,11.43,0,17.62c-2.5,0-4.51,0-6.53,0
		c-62.93,0-125.86,0-188.79,0.01c-2.9,0-5.83,0.01-8.7,0.34c-4.25,0.48-6.86,3.11-6.89,6.54c-0.04,4.3,2.62,7.26,7.22,7.73
		c2.6,0.26,5.22,0.25,7.84,0.25c63.66,0.01,127.32,0.01,190.98,0.01c1.69,0,3.38,0,4.97,0c2.46,15.53-5.36,22.67-18.99,22.56
		c-61.47-0.47-122.95-0.39-184.42-0.47c-10.02-0.01-20.05,0.14-30.07,0.35c-5.47,0.11-8.61,3.47-7.72,8.14
		c0.79,4.12,3.72,5.65,7.62,5.67c5.75,0.03,11.51,0.01,17.56,0.01c-2.03,15.56-3.96,30.35-5.92,45.35h-51.03
		c-3.78,0-6.85,3.07-6.85,6.85v0.61c0,3.78,3.07,6.85,6.85,6.85h184.23c3.78,0,6.85-3.07,6.85-6.85v-0.61
		c0-3.78-3.07-6.85-6.85-6.85h-50.33c-1.78-15.33-3.51-30.12-5.28-45.34c6.75,0,12.83,0,18.91,0c36.33,0,72.67,0.04,109-0.02
		c18.59-0.03,30.69-12.1,30.74-30.45c0.03-11.19,0.01-22.38,0.01-33.57c0-1.68,0-3.36,0-5.3c7.45,0,14.26,0.08,21.08-0.03
		c5.11-0.08,7.71-2.89,7.64-7.97C483.6,315.06,483.44,313.76,483.33,312.46z M273.93,170.33c-24.84,0.02-49.67,0.01-74.51,0.01
		c-24.69,0-49.38,0.01-74.08,0c-6.83,0-7.85-1.03-7.86-7.79c-0.01-27.6-0.01-55.19,0-82.79c0-6.24,1.2-7.46,7.29-7.46
		c49.82-0.01,99.64-0.01,149.46,0c5.92,0,7.15,1.22,7.15,7.11c0.01,27.89,0.01,55.78,0,83.66
		C281.38,169.22,280.26,170.32,273.93,170.33z M232.56,439.04c1.91-15.03,3.79-29.88,5.7-44.87c14.46,0,28.5,0,43.17,0
		c1.91,14.83,3.82,29.68,5.78,44.87H232.56z M409.46,163.73c5,0.59,7.81,4.33,7.81,9.45c0.02,13.28,1.74,10.33-10.15,10.7
		c-1.3,0.04-2.61,0.01-3.91,0.01c-3.48-0.01-6.98,0.23-10.41-0.14c-1.18-0.13-3.07-1.71-3.16-2.75
		C388.33,165.07,392.71,161.77,409.46,163.73z M337.74,310.2c3.02-37.27,6.03-74.46,9.03-111.61c9.65,0,18.62,0,28.21,0
		c0,2.91-0.13,5.63,0.03,8.33c0.26,4.45,3.17,7.45,6.98,7.43c3.9-0.02,6.6-2.97,6.84-7.49c0.45-8.5,0.45-8.5,8.93-8.5
		c6.51,0,13.03,0,20.22,0c0,3-0.07,5.56,0.02,8.11c0.16,4.84,2.88,7.89,6.9,7.88c3.97-0.01,6.72-3.1,6.92-7.93
		c0.1-2.45,0.02-4.9,0.02-7.7c9.44,0,18.52,0,28.23,0c3.02,36.97,6.05,74.08,9.11,111.48C425.29,310.2,381.91,310.2,337.74,310.2z"
		/>
	<path class="st0" d="M81.18,119.82H24.69c-4.6,0-8.33-3.73-8.33-8.33V54.99c0-4.6,3.73-8.33,8.33-8.33h56.49
		c4.6,0,8.33,3.73,8.33,8.33v56.49C89.52,116.09,85.79,119.82,81.18,119.82z"/>
	<g>
		<path class="st1" d="M61.79,101.89H41.94v-0.44c0.03-6.53,2.35-10.28,7.6-16.21c3.67-4.19,4.45-5.21,4.45-8.6
			c0-2.04-0.32-3.53-2.23-3.53c-2.04,0-2.49,1.77-2.56,5.16h-7.33c0.03-5.56,2.09-11.06,10.21-11.06c7.21,0,9.88,4.09,9.88,9.85
			c0,4.13-1.05,6.35-5.37,10.97c-2.84,3.05-4.83,5.4-5.5,7.39h11.67L61.79,101.89L61.79,101.89z"/>
	</g>
</g>
</svg>
