<svg xmlns="http://www.w3.org/2000/svg" width="114" height="114" viewBox="0 0 114 114">
  <g id="Promote_Your_Business" data-name="Promote Your Business" transform="translate(-265 -1529)">
    <circle id="Ellipse_6" data-name="Ellipse 6" cx="57" cy="57" r="57" transform="translate(265 1529)" fill="#fff"/>
    <path id="Path_42" data-name="Path 42" d="M63.319,40.485V46.8a30.752,30.752,0,0,1-1.1,3.4,3.778,3.778,0,0,1-4.412,2.116A28.177,28.177,0,0,1,53.429,50.4c-2.043-1.036-3.989-2.268-6.062-3.235a20.173,20.173,0,0,0-8.358-1.93,52.493,52.493,0,0,0-6.83.22c-2.548.308-3.528,2.044-2.655,4.244.53,1.337,1.072,2.672,1.693,3.968,1.043,2.174,1.719,4.518,4.24,5.764,1.642.811,1.435,3.164-.192,4.1a27.178,27.178,0,0,1-3.348,1.391q-2.207.9-4.413,1.8H25.723A6.1,6.1,0,0,1,23.1,63.766c-1.341-3.02-2.756-6.012-3.98-9.079A3.3,3.3,0,0,0,16.438,52.6a7.765,7.765,0,0,1-2.769-1.316c-.617-.466-1.079-.734-1.808-.4-.416.19-.877.279-1.3.448a6.032,6.032,0,0,1-5.219-.36A9.639,9.639,0,0,1,0,44.431V40.683a4.966,4.966,0,0,0,.2-.529A6.045,6.045,0,0,1,3.387,35.8c3.673-1.738,7.418-3.334,11.031-5.188a47.418,47.418,0,0,0,13.531-9.989,22.64,22.64,0,0,0,5.1-8.308c.779-2.415,1.305-4.91,2-7.355a6.014,6.014,0,0,1,1.921-3.451C38.82.1,40.731.415,42.582,1.439A24.711,24.711,0,0,1,49.87,8.22a64.752,64.752,0,0,1,8.011,13.464,67.6,67.6,0,0,1,4.584,14.03c.327,1.582.572,3.18.854,4.771M40.912,8.494l-.435.13A23.207,23.207,0,0,0,40,11.942a39.823,39.823,0,0,0,1.733,11.671A41.84,41.84,0,0,0,53.113,42.694a6.3,6.3,0,0,0,3.176,1.945c.111-.39.234-.723.3-1.067A20.756,20.756,0,0,0,56.3,36.18a47.144,47.144,0,0,0-3.389-11.02A51.088,51.088,0,0,0,43.38,10.508a23.106,23.106,0,0,0-2.468-2.014" transform="translate(290 1552.44)" fill="#008e8c"/>
  </g>
</svg>
