<svg xmlns="http://www.w3.org/2000/svg" width="57" height="57" viewBox="0 0 57 57"><g transform="translate(-4902 -2679)"><rect width="57" height="57" rx="8" transform="translate(4902 2679)" fill="#ccf0de"/><g transform="translate(4910.789 2692.809)"><path d="M17.345,18.652V33.779L31.59,27.017V12.6L17.345,18.652ZM2.005,27.017,16.3,33.779V18.652L2.005,12.6Z" transform="translate(3.114 -3.408)"/><path d="M4154.741,2944.9l-4.839,4.232-14.339-6.572,4.9-3.7Z" transform="translate(-4135.348 -2929.69)" fill="#6b6b6b"/><path d="M19.63,6.011l-5.7,2.129L0,2.131,5.5,0Z" transform="translate(40.085 8.141) rotate(180)" fill="#6b6b6b"/><path d="M4150.748,2937.418l-14.279,6.292-4.356-3.768,14.268-6.082Z" transform="translate(-4111.674 -2924.689)" fill="#6b6b6b"/><path d="M19.417,2.024,5.657,7.68,0,6.113,14.132,0Z" transform="translate(19.417 8.17) rotate(180)" fill="#6b6b6b"/></g></g></svg>