<svg id="Refferals" xmlns="http://www.w3.org/2000/svg" width="45.459" height="41.326" viewBox="0 0 45.459 41.326">
  <path id="gift" d="M35.167,3.816a6.2,6.2,0,0,0-8.767,0L23.479,6.738q-.187.187-.355.385-.167-.2-.354-.385L19.847,3.816a6.2,6.2,0,0,0-8.767,8.767L12.9,14.4H1V26.8H5.133v16.53H42.326V26.8h4.133V14.4H33.352l1.816-1.816A6.2,6.2,0,0,0,35.167,3.816Zm-5.844,8.767L32.245,9.66a2.066,2.066,0,0,0-2.922-2.922L26.4,9.66a2.066,2.066,0,1,0,2.922,2.922ZM19.847,9.66,16.925,6.738A2.066,2.066,0,0,0,14,9.66l2.922,2.922A2.066,2.066,0,0,0,19.847,9.66Zm22.479,8.87v4.133H5.133V18.53ZM25.624,26.8h12.57v12.4H25.624Zm-3.788,0v12.4H9.265V26.8Z" transform="translate(-1 -2)" fill-rule="evenodd"/>
</svg>
