<svg xmlns="http://www.w3.org/2000/svg" width="29.139" height="25.863" viewBox="0 0 29.139 25.863">
  <path id="settings_Alt" data-name="settings Alt" d="M11.738,10.3a4.687,4.687,0,0,1,4.643,4.116h4.133a8.915,8.915,0,0,0-.249-1.621L23.6,10.872,21.252,6.8,17.917,8.723a8.791,8.791,0,0,0-3.826-2.207V2.663h-4.7V6.516a8.8,8.8,0,0,0-3.827,2.2L2.226,6.8-.126,10.871,3.211,12.8a8.546,8.546,0,0,0,0,4.415L-.126,19.14l2.352,4.073,3.332-1.925a8.78,8.78,0,0,0,3.829,2.2v3.853h4.7V19.054a4.672,4.672,0,0,1-7.055-4.048,4.7,4.7,0,0,1,4.7-4.7ZM27.018,21.474a4.6,4.6,0,0,0-.19-1.248l2.183-1.26-1.174-2.034-2.168,1.251a4.707,4.707,0,0,0-2.178-1.247V14.421H21.142v2.514a4.685,4.685,0,0,0-2.182,1.246L16.8,16.932l-1.174,2.034L17.8,20.222a4.21,4.21,0,0,0,0,2.5l-2.178,1.256L16.8,26.016l2.164-1.249a4.685,4.685,0,0,0,2.182,1.246v2.514h2.349V26.011a4.707,4.707,0,0,0,2.178-1.247l2.169,1.252,1.174-2.034-2.183-1.26a4.672,4.672,0,0,0,.188-1.248Zm-4.7,2.349a2.349,2.349,0,1,1,2.349-2.349A2.348,2.348,0,0,1,22.314,23.822Z" transform="translate(0.126 -2.663)"/>
</svg>
