<svg xmlns="http://www.w3.org/2000/svg" width="65.756" height="69.476" viewBox="0 0 65.756 69.476">
  <path id="Share_location" data-name="Share location" d="M66.274,62.882,61.526,48.633H56.315l2.894,13.9H8.262l2.894-13.9H5.945L1.192,62.882c-1.2,3.626.931,6.594,4.753,6.594H61.526C65.347,69.476,67.483,66.51,66.274,62.882ZM51.1,17.369a17.369,17.369,0,0,0-34.738,0c0,16.587,17.369,34.738,17.369,34.738S51.1,33.956,51.1,17.369Zm-26.748.208a9.379,9.379,0,1,1,9.379,9.379,9.374,9.374,0,0,1-9.379-9.379Z" transform="translate(-0.856)" fill="#008e8c"/>
</svg>
