<svg xmlns="http://www.w3.org/2000/svg" width="57" height="57" viewBox="0 0 57 57"><g transform="translate(-5020 -2679)"><rect width="57" height="57" rx="8" transform="translate(5020 2679)" fill="#ffd1cc"/><path d="M18.075,33.255V15.6l5.1-2.148v8.427l2.368-3.9,1.844,1.194V11.676l7.468-3.143V25.361L18.077,33.254Zm-1.235,0h0L0,25.361V8.533l4.613,1.935-.039.017v8.137l1.959-2.546,2.214,5.091v-8.8l.189-.082,7.9,3.315V33.255Zm.544-18.579h0l-7.072-2.992,6.067-2.63,6.8,3.015v.175l-5.794,2.432Zm9.91-4.16h0L20.253,7.374l7.21-3.126,7.373,3.1-7.541,3.166ZM6.02,9.868h0L.111,7.368,6.462,4.656l5.774,2.561L6.02,9.868ZM16.155,5.545h0L10.4,2.975,17.366,0,23.3,2.5,16.156,5.545Z" transform="translate(5031 2691)"/></g></svg>