<svg xmlns="http://www.w3.org/2000/svg" xmlns:xlink="http://www.w3.org/1999/xlink" width="102" height="102" viewBox="0 0 102 102">
  <defs>
    <filter id="Ellipse_47" x="0" y="0" width="102" height="102" filterUnits="userSpaceOnUse">
      <feOffset dy="3" input="SourceAlpha"/>
      <feGaussianBlur stdDeviation="10" result="blur"/>
      <feFlood flood-opacity="0.039"/>
      <feComposite operator="in" in2="blur"/>
      <feComposite in="SourceGraphic"/>
    </filter>
  </defs>
  <g id="Store" transform="translate(402 -1332)">
    <g transform="matrix(1, 0, 0, 1, -402, 1332)" filter="url(#Ellipse_47)">
      <circle id="Ellipse_47-2" data-name="Ellipse 47" cx="21" cy="21" r="21" transform="translate(30 27)"/>
    </g>
    <path id="shop" d="M7.092,8.828,7.941,3.2H3.531L1.688,8.024A1.689,1.689,0,0,0,1.6,8.56C1.6,9.743,2.834,10.7,4.357,10.7A2.614,2.614,0,0,0,7.093,8.828ZM11.248,10.7C12.771,10.7,14,9.743,14,8.56c0-.044,0-.088-.005-.13L13.454,3.2H9.044L8.5,8.426c0,.044,0,.088,0,.134,0,1.183,1.234,2.144,2.756,2.144Zm5.36,1.122v4.238H5.888V11.832a4.508,4.508,0,0,1-1.532.266,4.493,4.493,0,0,1-.612-.052v6.806a1.5,1.5,0,0,0,1.5,1.5H17.252a1.506,1.506,0,0,0,1.5-1.5V12.046a4.612,4.612,0,0,1-.612.052,4.46,4.46,0,0,1-1.532-.273Zm4.2-3.8L18.965,3.2H14.556L15.4,8.819A2.608,2.608,0,0,0,18.14,10.7c1.522,0,2.756-.961,2.756-2.144A1.726,1.726,0,0,0,20.811,8.024Z" transform="translate(-362.08 1368.224)" fill="#fff"/>
  </g>
</svg>
