<svg xmlns="http://www.w3.org/2000/svg" width="42" height="42" viewBox="0 0 42 42">
  <g id="Success" transform="translate(364.341 -1257)">
    <circle id="Ellipse_58" data-name="Ellipse 58" cx="21" cy="21" r="21" transform="translate(-364.341 1257)" fill="#008e8c" opacity="0.3"/>
    <circle id="Ellipse_59" data-name="Ellipse 59" cx="16.5" cy="16.5" r="16.5" transform="translate(-359.341 1261)" fill="#008e8c"/>
    <g id="Layer_2" data-name="Layer 2" transform="translate(-351.941 1269.059)">
      <g id="invisible_box" data-name="invisible box" transform="translate(0 0)">
        <rect id="Rectangle_35" data-name="Rectangle 35" width="18" height="18" transform="translate(-0.4 -0.059)" fill="none"/>
      </g>
      <g id="icons_Q2" data-name="icons Q2" transform="translate(0.498 4.498)">
        <g id="Group_15" data-name="Group 15">
          <path id="Path_10" data-name="Path 10" d="M15.154,22.44l-2.933-2.9a.77.77,0,0,1-.073-.99.7.7,0,0,1,1.1-.073l2.42,2.42,7.553-7.553a.733.733,0,0,1,1.027,1.027L16.18,22.44a.7.7,0,0,1-1.027,0Z" transform="translate(-8.328 -13.2)" fill="#fff"/>
          <path id="Path_11" data-name="Path 11" d="M5.657,31.39a.733.733,0,0,1-.513-.22L2.21,28.237a.7.7,0,0,1,0-1.027.7.7,0,0,1,1.027,0L6.17,30.143a.7.7,0,0,1,0,1.027A.733.733,0,0,1,5.657,31.39Z" transform="translate(-1.985 -21.93)" fill="#fff"/>
          <path id="Path_12" data-name="Path 12" d="M20.723,18.993a.733.733,0,0,1-.513-.22.7.7,0,0,1,0-1.027l4.4-4.4a.733.733,0,0,1,1.027,1.027l-4.4,4.4A.733.733,0,0,1,20.723,18.993Z" transform="translate(-13.385 -13.2)" fill="#fff"/>
        </g>
      </g>
    </g>
  </g>
</svg>
