<svg xmlns="http://www.w3.org/2000/svg" xmlns:xlink="http://www.w3.org/1999/xlink" width="227" height="227" viewBox="0 0 227 227"><defs><filter id="a" x="0" y="0" width="227" height="227" filterUnits="userSpaceOnUse"><feOffset dy="16" input="SourceAlpha"/><feGaussianBlur stdDeviation="17" result="b"/><feFlood flood-opacity="0.078"/><feComposite operator="in" in2="b"/><feComposite in="SourceGraphic"/></filter><clipPath id="c"><rect width="81.753" height="81.748" fill="#ef9244"/></clipPath></defs><g transform="translate(-1402 -1832)"><g transform="matrix(1, 0, 0, 1, 1402, 1832)" filter="url(#a)"><circle cx="62.5" cy="62.5" r="62.5" transform="translate(51 35)" fill="#fff"/></g><g transform="translate(1474.184 1888.185)"><g clip-path="url(#c)"><path d="M40.855,0A40.874,40.874,0,1,1,0,40.848,40.9,40.9,0,0,1,40.855,0M24.973,15.079l41.686,41.7a30.289,30.289,0,0,0-41.686-41.7M14.986,25.227c-6.369,9.652-6.758,25.881,4.448,37.086C30.67,73.546,46.912,73.1,56.519,66.761L14.986,25.227" transform="translate(0 0)" fill="#ef9244"/></g></g></g></svg>