<svg xmlns="http://www.w3.org/2000/svg" xmlns:xlink="http://www.w3.org/1999/xlink" width="227" height="227" viewBox="0 0 227 227"><defs><filter id="a" x="0" y="0" width="227" height="227" filterUnits="userSpaceOnUse"><feOffset dy="16" input="SourceAlpha"/><feGaussianBlur stdDeviation="17" result="b"/><feFlood flood-opacity="0.078"/><feComposite operator="in" in2="b"/><feComposite in="SourceGraphic"/></filter><clipPath id="c"><rect width="78.261" height="50.173" fill="#ef9244"/></clipPath></defs><g transform="translate(-962 -1832)"><g transform="matrix(1, 0, 0, 1, 962, 1832)" filter="url(#a)"><circle cx="62.5" cy="62.5" r="62.5" transform="translate(51 35)" fill="#fff"/></g><g transform="translate(1036.369 1904.413)"><g clip-path="url(#c)"><path d="M58.06,23.215A14.089,14.089,0,0,1,71.626,47.871,14.127,14.127,0,0,1,55.258,24.906l-1.9-4.141c-.643.557-1.251,1.009-1.772,1.546-3.147,3.244-4.093,7.232-3.858,11.605a12.049,12.049,0,0,0,.124,1.342,3.267,3.267,0,0,1-2.15,3.866A22.165,22.165,0,0,1,40.457,40.6a25.251,25.251,0,0,1-9.082-.6,3.359,3.359,0,0,1-.463-.16c.045-1.914.225-3.738.105-5.543a17.047,17.047,0,0,0-14.14-15.2,17.493,17.493,0,0,0-9.256,1.054c-1.9.758-5.807-.181-7.185-1.7A1.742,1.742,0,0,1,.2,16.467a7.331,7.331,0,0,1,3.356-3.587,14.513,14.513,0,0,1,6.82-1.826c2.657-.086,5.327-.011,7.982.154A5.616,5.616,0,0,1,23,14.247a3.677,3.677,0,0,0,1.946,1.627A19.279,19.279,0,0,0,32.1,17.157c.251,0,.51-.326.75-.519.066-.053.084-.171.116-.261,1.508-4.255,4.767-6.183,9.023-6.75,1.015-.135,2.045-.179,3.071-.216a3.531,3.531,0,0,0,3.148-4.352c-.532-1.764-.662-1.838-2.411-1.379a8.853,8.853,0,0,0-3.767,2.049c-.918.835-1.859.851-2.533.08a1.68,1.68,0,0,1,.321-2.463A13.171,13.171,0,0,1,48.327,0a1.644,1.644,0,0,1,1.735,1.128c.766,2.1,1.61,4.194,2.173,6.355a70.392,70.392,0,0,0,5.382,14.9c.145.28.3.557.443.831m3.049,5.707-3.145-5.506-2.53,1.622,2.952,5.272L61.13,28.9c1.863,2.489,3.712,4.989,5.6,7.46.7.911.748,1.73.024,2.381a1.532,1.532,0,0,1-2.352-.3c-.9-1.006-1.787-2.022-2.6-3.1-1.139-1.506-2.2-3.069-3.325-4.646a6.977,6.977,0,0,0-2.031,4.45,7.764,7.764,0,0,0,12.2,7.214,7.39,7.39,0,0,0,3.123-7.85,7.634,7.634,0,0,0-10.66-5.6" transform="translate(0 0)" fill="#ef9244"/><path d="M21.879,129.345h6.04c.844,5.16-5.719,11.768-12.361,12.546A14.118,14.118,0,1,1,13.9,113.726c8.8-.135,13.978,7.314,14.094,12.626H21.882l-.121-.1a7.761,7.761,0,0,0-7.475-6.185A7.681,7.681,0,0,0,6.7,125.592a7.811,7.811,0,0,0,3.438,8.924c4.568,2.735,10.164.29,11.636-5.085l.1-.085" transform="translate(-0.022 -91.81)" fill="#ef9244"/><path d="M61.332,165.524q0,1.5,0,2.993l-.1.085c-.609,0-1.222.042-1.826-.016a1.6,1.6,0,0,0-1.811.958A4.712,4.712,0,0,1,48.9,167.4a4.656,4.656,0,0,1,2.859-4.772c1.941-.784,4.441-.352,5.444,1.371.82,1.41,1.838,1.512,3.14,1.423.287-.02.577,0,.865,0l.121.1" transform="translate(-39.473 -130.982)" fill="#ef9244"/><path d="M286.344,33.012a10.951,10.951,0,0,1,6.759.061,3.025,3.025,0,0,1,2.1,2.646,32.17,32.17,0,0,1,.04,4.4,3.334,3.334,0,0,1-2.566,3.028c-.121.041-.247.069-.37.1-2.545.706-2.776.609-3.53-1.874-.827-2.724-1.59-5.468-2.428-8.368" transform="translate(-231.165 -26.243)" fill="#ef9244"/></g></g></g></svg>