<svg xmlns="http://www.w3.org/2000/svg" xmlns:xlink="http://www.w3.org/1999/xlink" width="227" height="227" viewBox="0 0 227 227"><defs><filter id="a" x="0" y="0" width="227" height="227" filterUnits="userSpaceOnUse"><feOffset dy="16" input="SourceAlpha"/><feGaussianBlur stdDeviation="17" result="b"/><feFlood flood-opacity="0.078"/><feComposite operator="in" in2="b"/><feComposite in="SourceGraphic"/></filter><clipPath id="c"><rect width="76.095" height="60.66" fill="#ef9244"/></clipPath></defs><g transform="translate(-962 -1452)"><g transform="matrix(1, 0, 0, 1, 962, 1452)" filter="url(#a)"><circle cx="62.5" cy="62.5" r="62.5" transform="translate(51 35)" fill="#fefefe"/></g><g transform="translate(1037.65 1519.663)"><g clip-path="url(#c)"><path d="M12.867,102.54a4.729,4.729,0,0,1,1.409-3.216,13.027,13.027,0,0,1,5.743-3.37A28.217,28.217,0,0,1,31.169,94.67a2.358,2.358,0,0,0,1.881-.576,16.722,16.722,0,0,1,7.892-3.336,29.512,29.512,0,0,1,16.006,1.161,13.55,13.55,0,0,1,4.426,2.642,1.275,1.275,0,0,0,.9.212A29.5,29.5,0,0,1,75.84,96.26a12.025,12.025,0,0,1,4.924,3.113,4.655,4.655,0,0,1,1.357,3.167Z" transform="translate(-9.538 -66.836)" fill="#ef9244"/><path d="M.009,144.379H76.065a8.191,8.191,0,0,1-.685,3.854,17.644,17.644,0,0,1-10.02,10.2c-3.408,1.4-6.918,2.545-10.336,3.918a25.42,25.42,0,0,0-4.073,2.2,4.061,4.061,0,0,0-2.065,3.121h-.777c-6.689,0-13.377-.007-20.066.013-.59,0-.761-.182-.988-.741A5.61,5.61,0,0,0,25.6,164.9a19.3,19.3,0,0,0-6.051-3.209c-3.034-1.157-6.151-2.118-9.12-3.421A17.185,17.185,0,0,1,.246,146.552a10.775,10.775,0,0,1-.232-1.45,6.108,6.108,0,0,1,0-.723m72.375,3.111H3.774c.129.3.217.544.33.77a15.277,15.277,0,0,0,5.339,6.005c2.246,1.487,4.858,2.108,7.314,3.1,2.959,1.195,5.944,2.356,8.8,3.776a15.416,15.416,0,0,1,3.478,2.891,1.518,1.518,0,0,0,1.164.543c4.829-.013,9.659-.036,14.488.013,1.238.013,2.337-.014,2.994-1.285a2.8,2.8,0,0,1,.722-.693,19.275,19.275,0,0,1,5.686-3.244c3.411-1.325,6.885-2.492,10.27-3.879a14.873,14.873,0,0,0,8.029-8" transform="translate(0 -107.02)" fill="#ef9244"/><path d="M138.26.571a16.15,16.15,0,0,0,.623,8.3,9.539,9.539,0,0,0,.861,1.809,7.294,7.294,0,0,1,.2,7.708,12.566,12.566,0,0,1-1.3,1.978,11.539,11.539,0,0,0-.243-6.794,6.668,6.668,0,0,0-.895-1.955,7.4,7.4,0,0,1-1.289-5.645,11.628,11.628,0,0,1,1.546-4.735c.143-.233.326-.441.491-.66" transform="translate(-100.91 -0.423)" fill="#ef9244"/><path d="M198,20.4a11.729,11.729,0,0,0-1.712-9.572,5.7,5.7,0,0,1-.86-3.321A11.986,11.986,0,0,1,196.922,1.5a4.207,4.207,0,0,1,.7-.884,15.556,15.556,0,0,0,.236,7.289,10.935,10.935,0,0,0,1.127,2.7c1.836,2.868,1.5,5.663-.092,8.463-.264.464-.593.892-.892,1.337" transform="translate(-144.861 -0.455)" fill="#ef9244"/><path d="M78.068,19.976a11,11,0,0,0-.164-6.906,6.337,6.337,0,0,0-.873-1.882,7.4,7.4,0,0,1-1.284-5.721A11.477,11.477,0,0,1,77.286.811c.143-.232.323-.442.6-.811-.114,1-.236,1.793-.292,2.6a13.209,13.209,0,0,0,1.933,8.131c1.945,3.107.535,7.136-1.455,9.25" transform="translate(-56.076)" fill="#ef9244"/></g></g></g></svg>