<svg xmlns="http://www.w3.org/2000/svg" xmlns:xlink="http://www.w3.org/1999/xlink" width="227" height="227" viewBox="0 0 227 227"><defs><filter id="a" x="0" y="0" width="227" height="227" filterUnits="userSpaceOnUse"><feOffset dy="16" input="SourceAlpha"/><feGaussianBlur stdDeviation="17" result="b"/><feFlood flood-opacity="0.078"/><feComposite operator="in" in2="b"/><feComposite in="SourceGraphic"/></filter><clipPath id="c"><rect width="82.44" height="81.896" fill="#ef9244"/></clipPath></defs><g transform="translate(-1402 -1452)"><g transform="matrix(1, 0, 0, 1, 1402, 1452)" filter="url(#a)"><circle cx="62.5" cy="62.5" r="62.5" transform="translate(51 35)" fill="#fff"/></g><g transform="translate(1474.488 1508.472)"><g clip-path="url(#c)"><path d="M6.622,62.035c.2-2.668.414-5.495.641-8.32a.963.963,0,0,0-.325-.857c-2-1.914-3.979-3.846-5.971-5.767a2.564,2.564,0,0,1-.443-3.567q2.205-3.545,4.427-7.08a.944.944,0,0,0,.1-.906q-1.355-3.947-2.679-7.9a2.641,2.641,0,0,1,1.317-3.408q3.626-2.068,7.261-4.122a.967.967,0,0,0,.54-.791c.416-2.768.856-5.533,1.3-8.3A2.612,2.612,0,0,1,15.5,8.637c2.662-.1,5.324-.192,7.988-.242a1.592,1.592,0,0,0,1.444-.726c1.528-2.139,3.113-4.238,4.675-6.352A2.726,2.726,0,0,1,33.32.394c2.484,1.177,4.968,2.352,7.444,3.545a.941.941,0,0,0,.911,0Q45.483,2.111,49.3.309a2.577,2.577,0,0,1,3.381.834C54.341,3.36,56,5.577,57.619,7.818a1.247,1.247,0,0,0,1.109.565c2.7.066,5.394.156,8.091.244a2.683,2.683,0,0,1,2.847,2.482q.665,4.146,1.29,8.3a.822.822,0,0,0,.469.664q3.636,2.051,7.26,4.124a2.645,2.645,0,0,1,1.352,3.518q-1.32,3.931-2.655,7.857a.9.9,0,0,0,.1.86c1.485,2.354,2.954,4.718,4.427,7.08a2.534,2.534,0,0,1-.409,3.528q-3.008,2.934-6.037,5.846a.885.885,0,0,0-.294.808q.35,4.16.646,8.325A2.668,2.668,0,0,1,73.63,65.1c-2.64.758-5.28,1.519-7.925,2.259a.922.922,0,0,0-.679.6q-1.575,3.837-3.183,7.66a2.59,2.59,0,0,1-3.3,1.72c-2.743-.559-5.486-1.117-8.234-1.647a1.023,1.023,0,0,0-.732.2c-2.2,1.735-4.379,3.494-6.566,5.244a2.518,2.518,0,0,1-3.621-.014q-3.271-2.638-6.559-5.253a.959.959,0,0,0-.687-.188c-2.748.536-5.491,1.1-8.233,1.658a2.676,2.676,0,0,1-3.3-1.753c-1.06-2.516-2.128-5.03-3.175-7.552a1.075,1.075,0,0,0-.79-.7c-2.678-.75-5.349-1.527-8.019-2.306a2.63,2.63,0,0,1-2.009-3M28.087,21.823c-.372.038-1.112.076-1.839.195a7.632,7.632,0,0,0-5.062,2.7,10.356,10.356,0,0,0-1.6,10.262,7.841,7.841,0,0,0,5.267,5.238,11.89,11.89,0,0,0,4.793.436,8.328,8.328,0,0,0,7.437-5.281,11.2,11.2,0,0,0,.662-5.471,8.394,8.394,0,0,0-4.51-7,10.974,10.974,0,0,0-5.146-1.078M54.094,41.145c-.917.121-1.853.166-2.749.378a7.97,7.97,0,0,0-6.314,5.846,11.444,11.444,0,0,0-.049,5.963,7.857,7.857,0,0,0,5.346,5.791,11.643,11.643,0,0,0,5.191.5A8.252,8.252,0,0,0,62.9,54.058a10.221,10.221,0,0,0,.218-6.586,8.178,8.178,0,0,0-4.88-5.515,12.89,12.89,0,0,0-4.146-.811M54.013,22.13c-1.7,0-3.28-.01-4.858.016-.147,0-.344.2-.428.357Q39.305,39.954,29.9,57.415c-.411.763-.816,1.53-1.258,2.359.25.015.415.033.581.033,1.306,0,2.612-.014,3.917.011a.7.7,0,0,0,.711-.447c.716-1.35,1.453-2.689,2.181-4.032q7.916-14.606,15.83-29.212c.7-1.294,1.394-2.593,2.148-4" transform="translate(0 0)" fill="#ef9244"/><path d="M254.833,259.3a8.2,8.2,0,0,1-.847,4.129,2.179,2.179,0,0,1-2.537,1.094,2.117,2.117,0,0,1-1.4-1.121,6.626,6.626,0,0,1-.766-2.806,10.62,10.62,0,0,1,.35-4.229,4.838,4.838,0,0,1,.626-1.287,2.2,2.2,0,0,1,3.6.061,6.213,6.213,0,0,1,.915,2.969c.043.426.046.857.063,1.19" transform="translate(-223.517 -227.962)" fill="#ef9244"/><path d="M495.548,444.606a9.3,9.3,0,0,1,.684-3.851,2.26,2.26,0,0,1,1.687-1.437,2.182,2.182,0,0,1,2.539,1.276,8.134,8.134,0,0,1,.7,3.455,8.571,8.571,0,0,1-.795,4.405,2.153,2.153,0,0,1-2.047,1.222,2.064,2.064,0,0,1-1.784-.949,6.035,6.035,0,0,1-.891-2.764c-.058-.493-.069-.993-.093-1.357" transform="translate(-444.44 -393.968)" fill="#ef9244"/></g></g></g></svg>