<svg id="Eye-password_view" data-name="Eye-password view" xmlns="http://www.w3.org/2000/svg" width="64.244" height="49.506" viewBox="0 0 64.244 49.506">
  <path id="Path_520" data-name="Path 520" d="M14,12a2,2,0,1,1-2-2A2,2,0,0,1,14,12Z" transform="translate(20.122 12.753)" fill="#8a8a8a"/>
  <path id="Path_521" data-name="Path 521" d="M32.5,3A33.152,33.152,0,0,0,.378,27.753a33.219,33.219,0,0,0,64.244,0A33.151,33.151,0,0,0,32.5,3ZM43.556,27.753a11.056,11.056,0,1,1-11.056-11A11.029,11.029,0,0,1,43.556,27.753Z" transform="translate(-0.378 -3)" fill="#8a8a8a" fill-rule="evenodd"/>
</svg>
