<svg xmlns="http://www.w3.org/2000/svg" width="42" height="39.376" viewBox="0 0 42 39.376">
  <g id="eye-blocked" transform="translate(0 0)">
    <path id="Path_1010" data-name="Path 1010" d="M38.8.576a1.968,1.968,0,0,0-2.784,0L27.723,8.869A23.134,23.134,0,0,0,21,7.875,23.521,23.521,0,0,0,0,21,24.05,24.05,0,0,0,7.1,29.5L.576,36.016A1.969,1.969,0,0,0,3.362,38.8L38.8,3.362a1.968,1.968,0,0,0,0-2.784ZM17.063,13.125A3.938,3.938,0,0,1,20.792,15.8L15.8,20.792a3.937,3.937,0,0,1,1.264-7.666ZM4.517,21a19.981,19.981,0,0,1,6.129-6.165c.16-.1.323-.2.487-.3a10.508,10.508,0,0,0,1.282,9.639l-2.5,2.5A19.975,19.975,0,0,1,4.517,21Z" transform="translate(0 0)" fill="#fff"/>
    <path id="Path_1011" data-name="Path 1011" d="M27.261,14.574a10.484,10.484,0,0,0-.5-3.195l-13.2,13.2a10.506,10.506,0,0,0,13.7-10Z" transform="translate(4.24 3.556)" fill="#fff"/>
    <path id="Path_1012" data-name="Path 1012" d="M30.908,9.062l-2.846,2.846.155.1a19.967,19.967,0,0,1,6.129,6.165,19.981,19.981,0,0,1-6.129,6.165,19.246,19.246,0,0,1-15.028,2.447l-3.154,3.154a23.083,23.083,0,0,0,7.828,1.36,23.524,23.524,0,0,0,21-13.125,24.009,24.009,0,0,0-7.957-9.106Z" transform="translate(3.136 2.832)" fill="#fff"/>
  </g>
</svg>
