<svg xmlns="http://www.w3.org/2000/svg" width="65.756" height="65.754" viewBox="0 0 65.756 65.754">
  <path id="Filter" d="M16.212,3.792c0-2.021-1.637-2.192-3.653-2.192s-3.653.171-3.653,2.192V34.478h7.306V3.792ZM8.906,65.164c0,2.014,1.632,2.192,3.653,2.192s3.653-.178,3.653-2.192V52.744H8.906ZM21.322,38.131H3.787c-2.021,0-2.187,1.637-2.187,3.653v3.653c0,2.021.169,3.653,2.187,3.653h17.54c2.009,0,2.192-1.632,2.192-3.653V41.784C23.519,39.768,23.336,38.131,21.322,38.131ZM65.16,41.784H47.62c-2.016,0-2.185,1.637-2.185,3.653v3.653c0,2.021.169,3.653,2.187,3.653h17.54c2.009,0,2.192-1.632,2.192-3.653V45.437c0-2.016-.183-3.653-2.2-3.653ZM45.437,23.519c0-2.016-.183-3.653-2.2-3.653H25.706c-2.021,0-2.187,1.637-2.187,3.653v3.653c0,2.021.169,3.653,2.187,3.653h17.54c2.009,0,2.192-1.632,2.192-3.653ZM38.131,3.792c0-2.021-1.637-2.192-3.653-2.192s-3.653.171-3.653,2.192V16.212h7.306ZM30.825,65.164c0,2.014,1.632,2.192,3.653,2.192s3.653-.178,3.653-2.192V34.478H30.825V65.164ZM60.05,3.792C60.05,1.771,58.413,1.6,56.4,1.6s-3.653.171-3.653,2.192V38.131H60.05V3.792ZM52.744,65.164c0,2.014,1.632,2.192,3.653,2.192s3.653-.178,3.653-2.192V56.4H52.744Z" transform="translate(-1.6 67.354) rotate(-90)" fill="#ef9244"/>
</svg>
