<svg xmlns="http://www.w3.org/2000/svg" width="57" height="57" viewBox="0 0 57 57"><g transform="translate(-1587 -244)"><rect width="57" height="57" rx="8" transform="translate(1587 244)" fill="#ccf0de"/><g transform="translate(228.034)"><path d="M319.829,26.085v7.269a1.56,1.56,0,0,0,1.56,1.56H324.1a3.31,3.31,0,0,0,6.62,0h5.736a1.56,1.56,0,0,0,1.56-1.56V17.425a1.56,1.56,0,0,0-1.56-1.56h-8.779a7.386,7.386,0,0,1-6.786,10.3,7.446,7.446,0,0,1-1.062-.077m5.125,8.152a2.455,2.455,0,1,1,2.455,2.455,2.455,2.455,0,0,1-2.455-2.455" transform="translate(1055.119 246.563)"/><path d="M431.872,39.354V54.3a3.31,3.31,0,0,0,6.62,0h1.537a1.959,1.959,0,0,0,1.94-1.978v-6.1a2,2,0,0,0-.408-1.214l-3.73-4.9a1.926,1.926,0,0,0-1.532-.764Zm2.845,7.756a1.159,1.159,0,0,1-1.159-1.159V43.514a1.159,1.159,0,0,1,1.159-1.159h3.3l2.565,3.361a1.16,1.16,0,0,1,.2.648v.745Zm-1.991,6.515a2.455,2.455,0,1,1,2.455,2.455,2.456,2.456,0,0,1-2.455-2.455" transform="translate(962.638 227.175)"/><path d="M299.044,0a5.683,5.683,0,1,0,5.683,5.683A5.683,5.683,0,0,0,299.044,0m3.647,3.97a1.918,1.918,0,0,1-.189.2h0c-.318.321-.639.641-.958.96l-3.352,3.352a.392.392,0,0,1-.433.126.451.451,0,0,1-.166-.106q-1.024-1.021-2.044-2.044a.766.766,0,0,1,0-1.082l.012-.01a.768.768,0,0,1,1.082,0c.388.386.775.775,1.161,1.161.023.024.04.054.075.1.089-.108,3.3-3.295,3.3-3.295.087-.089.243-.239.243-.239a1.385,1.385,0,0,1,.331-.258h0a0,0,0,0,1,0,0,.74.74,0,0,1,.14-.042.789.789,0,0,1,.15-.014.748.748,0,0,1,.1.007.651.651,0,0,1,.1.021.767.767,0,0,1,.567.658.077.077,0,0,0,0,.009c0,.026,0,.054,0,.08a.668.668,0,0,1-.127.423" transform="translate(1076.966 259.658)"/></g></g></svg>