<svg xmlns="http://www.w3.org/2000/svg" xmlns:xlink="http://www.w3.org/1999/xlink" width="185.857" height="173.305" viewBox="0 0 185.857 173.305">
  <defs>
    <clipPath id="clip-path">
      <rect id="Rectangle_771" data-name="Rectangle 771" width="185.857" height="173.305" fill="none"/>
    </clipPath>
  </defs>
  <g id="Logo_Mark" data-name="Logo Mark" transform="translate(0 0)">
    <g id="Group_491" data-name="Group 491" transform="translate(0 0)" clip-path="url(#clip-path)">
      <path id="Path_1283" data-name="Path 1283" d="M68.663,20.453A43.328,43.328,0,1,0,111.992,63.78,43.328,43.328,0,0,0,68.663,20.453M54.743,55.291l-1.3,1.238A3.263,3.263,0,0,0,52.4,59.11c.134,3.122.324,6.241.45,9.363q.227,5.576.376,11.157c.1,3.721.147,7.444.217,11.165a2.19,2.19,0,1,1-4.371.062q.218-5.916.444-11.834.076-2.081.149-4.159h.019q.233-7.456.462-14.915a11.741,11.741,0,0,0-.068-1.752,2.466,2.466,0,0,0-.77-1.434q-.858-.864-1.7-1.748a2.223,2.223,0,0,1-.64-1.721q.32-6.4.621-12.808c.031-.631.072-1.261.116-1.89a1.861,1.861,0,0,1,.089-.532,1.979,1.979,0,0,1,.274-.4,1.4,1.4,0,0,1,.275.382,3.378,3.378,0,0,1,.122.8c.06,1.8.12,3.607.159,5.411.041,1.826.056,3.653.087,5.481,0,.142,0,.336.085.413a.727.727,0,0,0,.491.194c.244-.016.336-.223.339-.468.014-.923.029-1.849.052-2.774q.1-4.141.208-8.286a2.991,2.991,0,0,1,.12-.764,1.435,1.435,0,0,1,.268-.388c.091.134.235.256.264.4a5.958,5.958,0,0,1,.142,1.139c.021,3.475.025,6.949.035,10.422,0,.537.132.745.47.745s.452-.2.46-.749c.043-3.079.078-6.158.14-9.237.014-.741.1-1.484.19-2.221a1.544,1.544,0,0,1,.277-.5c.1.161.274.314.291.483.1.92.184,1.839.211,2.763.081,2.66.13,5.322.192,7.983.008.326.021.654.039.98.019.345.2.541.483.528s.431-.2.433-.537c.014-1.445.019-2.889.031-4.332.019-2.153.035-4.309.068-6.462a5.193,5.193,0,0,1,.147-1.034c.029-.136.161-.248.246-.371.1.111.262.206.3.336a6,6,0,0,1,.258,1.214c.34,4.8.45,9.6.483,14.4a2.187,2.187,0,0,1-.691,1.668M77.494,83.968c-.006,1.154-.9,1.193-1.009.047-.006-.052-.01-.107-.016-.159q-.4-4.126-.731-8.255-.172-2.066-.326-4.13t-.3-4.132q-.076-1.027-.144-2.058c-.064-.933-.627-1.469-1.034-.98-.3.361-.6.724-.906,1.084-1.193,1.393-2.38,2.805-3.587,4.163-1.2,1.381-2.41,2.722-3.62,4.066-1.218,1.325-2.435,2.652-3.665,3.938l-.076.08c-.776.813-1.781-.326-1.8-2.043q-.02-1.79-.025-3.577c-.006-1.191-.014-2.384-.01-3.576q0-3.576.033-7.151t.118-7.151q.017-.78.039-1.558c.023-.828.665-.821.737.008q.067.78.132,1.56.291,3.579.539,7.159T62.3,68.46l0,.031c.085,1.376.914,2.169,1.509,1.441l.518-.634c1.185-1.42,2.369-2.842,3.566-4.227,1.189-1.4,2.4-2.759,3.6-4.13,1.211-1.344,2.419-2.7,3.641-4.006l.058-.062c.813-.873,1.882.274,1.944,2.086q.067,2.069.116,4.14t.1,4.14q.047,2.069.076,4.142t.05,4.142q.044,4.141.021,8.288c0,.054,0,.107,0,.159M90,55.987A18.264,18.264,0,0,0,88.044,57.8a.776.776,0,0,0-.175.522c.118,3.389.252,6.777.38,10.166q.151,3.937.3,7.875l.46,12.048c.033.834.072,1.667.087,2.5a2.162,2.162,0,1,1-4.32-.012c.122-3.537.266-7.073.4-10.612l.21-5.613L85.928,60.5c.027-.708.072-1.416.066-2.122a.98.98,0,0,0-.221-.64,15.47,15.47,0,0,0-1.857-1.713,7.891,7.891,0,0,1-3.364-7.306,19.948,19.948,0,0,1,2.668-8.73,7.792,7.792,0,0,1,1.8-2.227,2.714,2.714,0,0,1,3.818-.012,9.363,9.363,0,0,1,2.375,3.273,20.208,20.208,0,0,1,2.1,7.607A7.947,7.947,0,0,1,90,55.987" transform="translate(23.817 19.226)" fill="#ef9244"/>
      <path id="Path_1284" data-name="Path 1284" d="M166.027,68.929A73.688,73.688,0,0,0,163.5,57.082a73.25,73.25,0,0,0-4.342-11.361,80.324,80.324,0,0,0-32.9-35.348A84.862,84.862,0,0,0,115.1,5.158,85.835,85.835,0,0,0,103.264,1.7,84.941,84.941,0,0,0,91.028.112,88.7,88.7,0,0,0,78.7.36,89.364,89.364,0,0,0,66.539,2.512,85.114,85.114,0,0,0,54.852,6.487,80.99,80.99,0,0,0,34.027,19.526,79.974,79.974,0,0,0,8.661,60.6,78.37,78.37,0,0,0,6.508,84.694c.06,2.014.378,4.01.6,6.006.091,1,.33,1.985.489,2.974.188.987.34,1.981.572,2.957l.726,2.92c.126.485.233.974.372,1.453l.448,1.434.9,2.862,1.069,2.8a76.326,76.326,0,0,0,11.978,20.437,74.362,74.362,0,0,0,17.441,15.5,84.857,84.857,0,0,1-8.2-8.123c-1.315-1.389-2.456-2.931-3.665-4.4-.59-.747-1.117-1.544-1.678-2.313-.545-.778-1.125-1.529-1.61-2.347a75.99,75.99,0,0,1-9.5-20.4l-.78-2.689-.627-2.726-.314-1.358c-.1-.456-.159-.918-.241-1.376l-.462-2.747c-.149-.916-.2-1.847-.32-2.767-.085-.923-.248-1.835-.268-2.765-.072-1.853-.248-3.692-.175-5.545l.029-2.768.175-2.763c.035-.92.147-1.835.252-2.749.12-.914.171-1.833.343-2.737a77.321,77.321,0,0,1,2.4-10.721,72.025,72.025,0,0,1,3.942-10.2,71.246,71.246,0,0,1,5.376-9.489c.52-.743,1-1.519,1.548-2.239l1.634-2.179c1.158-1.4,2.272-2.831,3.513-4.152a68.515,68.515,0,0,1,7.851-7.491,73.342,73.342,0,0,1,81.214-8.047,78.609,78.609,0,0,1,9.155,5.82,77.9,77.9,0,0,1,8.23,7.112,71.029,71.029,0,0,1,7.12,8.263c1.116,1.443,2.109,2.974,3.123,4.491.939,1.564,1.919,3.112,2.749,4.741A71.837,71.837,0,0,1,156.383,59.4a75.433,75.433,0,0,1,4.326,21.645,73.29,73.29,0,0,1-.211,11.167c-1.247,14.931-7.3,29.479-16.811,41.672a74.736,74.736,0,0,0,21.829-40.989,78.738,78.738,0,0,0,.51-23.965" transform="translate(5.953 0)" fill="#008e8c"/>
      <path id="Path_1285" data-name="Path 1285" d="M0,110.724c2.411-1.855,4.916-3.587,7.471-5.242q1.275-.826,2.569-1.63c.908.823,1.767.122,2.611-1.123.807-2.363,1.556-6.458,2.609-2.012.894-.085,1.833.993,2.652-1.441.832-2.049,1.859,1.352,2.668-1.523.623.407,1.292,2.107,1.829.025.473-3.932.956-7.589,1.744-2.592,1.341,3.271,2.571,3.164,3.657-1.147,1.377,4.018,2.367-3.23,3.667-1.758,1.3,1.455,2.534.955,3.7-1.692,1.428,4.825,2.171-10.018,3.731-1.63,1.065-5.787,2.4-3.954,3.758-1.568,1.422-3.155,2.982-2.522,4.549-1.785,1.663,3.412,3.077-.473,4.588-1.694,1.432-3.548,2.867-7.058,4.627-1.6,1.531-1.088,3.374,6.54,4.685-1.424,1.732,4.9,3.04-2.767,4.677-1.457,1.789,5.663,2.945-7.277,4.8-1.009,1.608,1.457,3.155.487,4.687-1.5,1.589-.392,3.255.828,4.84-.958.617-4.895,1.667,2.487,2.344-.98.826.867,1.624.728,2.4-.208,1.474-3.845,3.273,1.214,4.823-.912,1.185,4.9,1.961-1.942,3.03-.508,1.1,2.384,2.02-.468,3.04-.446.987-.922,1.969-2.035,3.046-.411,1.168,4.208,2.169,3.684,3.046-.405.9-3.593,2.008-1.224,3.063-.279.757-7.694,2.1,1.414,3.063-.281.863-4.617,2-1.387,3.065-.241.927-2.856,1.971-2.309,3.075-.157,1.026.058,2.043-.235,3.073-.142,1.094,1.977,1.961-2.606,3.075-.068.728-8.581,1.975-2.221,3.079-.021,1.149,3.537,2.045-.188,3.075,0,1-.77,2.153,2.986,3.077.116,1.055.925,1.866-5.205,3.073.122,1.094,2.029,2.022-.681,3.071.178,1.079,1.663,2.02-.522,3.065.276a3.869,3.869,0,0,0,4.076.4c1.416,1.847,2.695-.19,4.066.514,1.288-1.612,2.79,2.947,4.047.623,1.3-1.075,2.757,2.408,4.029.735,1.238-2.625,2.526-3.653,4,.844,1.346.8,2.7,1.992,3.971.958,1.346,1.1,2.71,2.931,3.94,1.071,1.323.858,2.607.77,3.9,1.183a129.657,129.657,0,0,1,15.13,5.892c-2.012-.314-3.993-.7-5.975-1.042l-2.961-.553-2.982-.425c-1.989-.27-3.954-.611-5.931-.871l-5.944-.648c-1.967-.266-3.954-.384-5.935-.518-1.983-.114-3.944-.363-5.929-.405l-5.929-.227c-.984-.058-1.973-.052-2.962-.045l-2.962-.012-2.957-.019c-.986-.014-1.973.056-2.959.081l-5.909.163c-3.936.295-7.871.406-11.792.846q-11.768,1.021-23.434,3.1A370.044,370.044,0,0,0,45.168,94.424Q22.359,101.434,0,110.724" transform="translate(0 62.58)" fill="#008e8c"/>
    </g>
  </g>
</svg>
