<svg xmlns="http://www.w3.org/2000/svg" xmlns:xlink="http://www.w3.org/1999/xlink" width="215.729" height="201.168" viewBox="0 0 215.729 201.168">
  <defs>
    <clipPath id="clip-path">
      <rect id="Rectangle_886" data-name="Rectangle 886" width="215.729" height="201.168" fill="none"/>
    </clipPath>
  </defs>
  <g id="Logo_Vertical" data-name="Logo Vertical" transform="translate(0.556 -42.054)">
    <g id="Group_624" data-name="Group 624" transform="translate(-0.556 42.053)" clip-path="url(#clip-path)">
      <path id="Path_1303" data-name="Path 1303" d="M122.064,30.531a28.191,28.191,0,1,0,28.191,28.191,28.191,28.191,0,0,0-28.191-28.191M113.007,53.2l-.844.806a2.115,2.115,0,0,0-.682,1.68c.087,2.03.211,4.06.293,6.091q.147,3.629.245,7.26c.063,2.421.095,4.843.14,7.264a1.425,1.425,0,1,1-2.844.041q.143-3.85.288-7.7.051-1.352.1-2.706h.012q.152-4.853.3-9.7a7.671,7.671,0,0,0-.044-1.141,1.612,1.612,0,0,0-.5-.933q-.558-.562-1.1-1.137a1.445,1.445,0,0,1-.417-1.119q.209-4.167.4-8.334c.02-.411.047-.821.075-1.23a1.241,1.241,0,0,1,.059-.346,1.282,1.282,0,0,1,.177-.258.924.924,0,0,1,.179.249,2.207,2.207,0,0,1,.08.52c.039,1.173.078,2.347.1,3.52s.036,2.377.057,3.566c0,.092,0,.219.055.27a.48.48,0,0,0,.319.126c.159-.01.219-.146.222-.3.009-.6.019-1.2.034-1.805q.063-2.7.135-5.392a1.98,1.98,0,0,1,.078-.5.97.97,0,0,1,.174-.252c.06.086.153.166.172.26a3.778,3.778,0,0,1,.093.74q.019,3.391.023,6.782c0,.349.085.485.3.484s.294-.129.3-.487c.028-2,.051-4.007.09-6.01.01-.482.067-.965.125-1.445.014-.113.118-.216.179-.325.066.1.179.2.19.315.061.6.12,1.2.138,1.8.052,1.731.084,3.463.125,5.194.005.213.014.425.025.638s.131.352.314.343.281-.131.282-.351c.008-.939.012-1.878.02-2.818.012-1.4.023-2.8.043-4.205a3.435,3.435,0,0,1,.1-.673.833.833,0,0,1,.162-.24c.067.072.171.134.194.217a3.95,3.95,0,0,1,.167.792c.222,3.119.293,6.245.315,9.371a1.419,1.419,0,0,1-.449,1.085m14.8,18.66c0,.75-.585.776-.657.03l-.01-.1q-.257-2.684-.476-5.371-.112-1.343-.211-2.687t-.2-2.687q-.048-.67-.094-1.339c-.041-.607-.407-.956-.671-.638l-.589.706c-.777.906-1.55,1.825-2.334,2.709s-1.569,1.77-2.357,2.644-1.584,1.726-2.384,2.564l-.049.051c-.506.529-1.159-.212-1.173-1.329-.009-.775-.014-1.551-.017-2.327s-.008-1.551-.006-2.326q0-2.328.022-4.653t.076-4.653q.013-.507.026-1.014c.014-.538.432-.534.479.006q.044.507.086,1.015.19,2.329.351,4.658t.3,4.657l0,.02c.055.895.6,1.411.983.937l.337-.412c.77-.924,1.541-1.85,2.32-2.751s1.56-1.794,2.342-2.687c.787-.876,1.574-1.755,2.369-2.608l.037-.04c.53-.568,1.225.178,1.264,1.357.03.9.054,1.8.077,2.693s.047,1.8.063,2.693.036,1.8.048,2.695.026,1.8.034,2.7q.027,2.7.013,5.393v.1m8.135-18.206a11.9,11.9,0,0,0-1.271,1.176.5.5,0,0,0-.113.339q.115,3.308.248,6.615.1,2.561.194,5.123.15,3.919.3,7.84c.021.542.047,1.084.057,1.626a1.407,1.407,0,1,1-2.812-.008c.08-2.3.174-4.6.261-6.9q.07-1.825.137-3.652h0q.178-4.611.353-9.221c.018-.461.046-.921.043-1.381a.648.648,0,0,0-.145-.417,10.14,10.14,0,0,0-1.208-1.114,5.133,5.133,0,0,1-2.189-4.754,12.98,12.98,0,0,1,1.735-5.681,5.1,5.1,0,0,1,1.17-1.449,1.764,1.764,0,0,1,2.484-.008,6.075,6.075,0,0,1,1.546,2.13,13.117,13.117,0,0,1,1.369,4.949,5.168,5.168,0,0,1-2.158,4.79" transform="translate(-14.492 -4.713)" fill="#fff"/>
      <path id="Path_1304" data-name="Path 1304" d="M169.411,44.848a47.882,47.882,0,0,0-1.643-7.709,47.5,47.5,0,0,0-2.824-7.392,52.258,52.258,0,0,0-21.4-23,55.1,55.1,0,0,0-7.262-3.393A51.665,51.665,0,0,0,120.615.073,51.831,51.831,0,0,0,104.68,1.635a55.333,55.333,0,0,0-7.6,2.586A52.7,52.7,0,0,0,83.527,12.7a52.029,52.029,0,0,0-16.5,26.726,50.968,50.968,0,0,0-1.4,15.676c.04,1.311.246,2.61.387,3.908.06.651.216,1.29.319,1.935.122.643.22,1.288.373,1.923l.471,1.9c.082.315.151.633.243.946l.292.933.584,1.861.7,1.821a49.686,49.686,0,0,0,7.792,13.3A48.373,48.373,0,0,0,88.127,93.714a55.426,55.426,0,0,1-5.335-5.284c-.855-.9-1.6-1.908-2.384-2.863-.384-.486-.727-1.005-1.092-1.5s-.731-1-1.048-1.528a49.45,49.45,0,0,1-6.185-13.273l-.507-1.749-.408-1.773-.2-.885c-.063-.3-.1-.6-.156-.895l-.3-1.788c-.1-.6-.134-1.2-.209-1.8-.055-.6-.162-1.194-.174-1.8-.047-1.205-.162-2.4-.113-3.608l.019-1.8.113-1.8c.024-.6.1-1.195.165-1.789s.11-1.192.223-1.781A50.215,50.215,0,0,1,72.1,40.822a48.5,48.5,0,0,1,6.062-12.813c.339-.485.648-.989,1.009-1.457l1.063-1.417c.753-.91,1.477-1.842,2.286-2.7a44.583,44.583,0,0,1,5.108-4.874,47.721,47.721,0,0,1,52.84-5.234,48.3,48.3,0,0,1,11.312,8.414,46.191,46.191,0,0,1,4.633,5.376c.726.939,1.372,1.935,2.032,2.922.611,1.017,1.248,2.024,1.788,3.085a46.469,46.469,0,0,1,2.907,6.527,49.007,49.007,0,0,1,2.815,14.083A47.511,47.511,0,0,1,165.813,60a51.433,51.433,0,0,1-10.937,27.114,48.625,48.625,0,0,0,14.2-26.67,51.213,51.213,0,0,0,.332-15.592" transform="translate(-10.113 0)" fill="#fff"/>
      <path id="Path_1305" data-name="Path 1305" d="M56.055,128.1c1.569-1.207,3.2-2.334,4.86-3.41q.832-.538,1.672-1.06c.591.535,1.149.079,1.7-.731.525-1.538,1.012-4.2,1.7-1.309.581-.057,1.192.646,1.725-.938.543-1.333,1.209.879,1.737-.992.4.266.839,1.372,1.19.017.307-2.559.623-4.938,1.135-1.686.872,2.128,1.673,2.058,2.379-.746.9,2.614,1.541-2.1,2.385-1.144s1.649.622,2.407-1.1c.928,3.14,1.412-6.519,2.427-1.06.693-3.765,1.561-2.572,2.446-1.019.923-2.053,1.938-1.642,2.96-1.162,1.082,2.22,2-.307,2.984-1.1.931-2.309,1.866-4.593,3.011-1.04,1-.707,2.2,4.256,3.048-.927,1.128,3.189,1.978-1.8,3.043-.947,1.164,3.684,1.916-4.735,3.121-.656,1.046.947,2.051.316,3.048-.977,1.034-.256,2.12.539,3.15-.624.4-3.185,1.085,1.619,1.525-.638.538.565,1.056.474,1.558-.135.96-2.5,2.13.791,3.139-.594.771,3.19,1.276-1.263,1.971-.331.716,1.553,1.314-.3,1.978-.29.643-.6,1.281-1.324,1.982-.267.759,2.737,1.411,2.4,1.982-.264.585-2.337,1.306-.8,1.993-.182.492-5.006,1.365.919,1.993-.184.561-3,1.3-.9,1.995-.156.6-1.858,1.282-1.5,2-.1.668.038,1.329-.153,2-.093.713,1.287,1.276-1.695,2-.044.473-5.584,1.285-1.445,2-.014.748,2.3,1.33-.122,2,0,.649-.5,1.4,1.942,2,.075.687.6,1.213-3.386,2,.08.711,1.321,1.314-.444,2,.115.7,1.082,1.315-.339,1.995.179a2.521,2.521,0,0,0,2.653.264c.922,1.2,1.753-.124,2.644.334.84-1.049,1.816,1.918,2.634.406.846-.7,1.794,1.565,2.621.477.806-1.707,1.643-2.376,2.6.55.877.522,1.758,1.3,2.585.622.875.719,1.763,1.908,2.563.7a8.718,8.718,0,0,0,2.538.77,84.512,84.512,0,0,1,9.844,3.834c-1.309-.2-2.6-.454-3.888-.678l-1.925-.359-1.941-.277c-1.294-.176-2.572-.4-3.859-.567L161.5,108.3c-1.28-.173-2.573-.249-3.862-.338s-2.566-.235-3.857-.262l-3.858-.148c-.641-.038-1.285-.035-1.928-.03l-1.927-.007-1.925-.013c-.64-.01-1.284.036-1.924.052l-3.846.107c-2.561.191-5.12.263-7.671.551q-7.659.663-15.248,2.016a241.044,241.044,0,0,0-30.012,7.27Q70.6,122.057,56.055,128.1" transform="translate(-8.654 -15.341)" fill="#fff"/>
      <path id="Path_1306" data-name="Path 1306" d="M59.338,172.447a4.512,4.512,0,0,0-2.7-.789H43.846V159.109H56.262a4.1,4.1,0,0,0,1.777-.411,3.321,3.321,0,0,0,1.366-1.155,2.832,2.832,0,0,0,.5-1.61,2.892,2.892,0,0,0-.911-2.088,2.944,2.944,0,0,0-2.132-.866H43.846v-3.8h13.06a3.529,3.529,0,0,0,2.465-.907,2.947,2.947,0,0,0,1-2.279,2.646,2.646,0,0,0-1.065-2.113,3.945,3.945,0,0,0-2.532-.83H40.714a4.123,4.123,0,0,0-2.776.911,2.7,2.7,0,0,0-.9,1.443,9.434,9.434,0,0,0-.189,2.066v25.964a8.043,8.043,0,0,0,.178,1.876,3.737,3.737,0,0,0,.777,1.455,3.978,3.978,0,0,0,3.043,1.132h16.1a3.56,3.56,0,0,0,2.565-.944,3.16,3.16,0,0,0,.989-2.387,2.657,2.657,0,0,0-1.166-2.122" transform="translate(-5.689 -22.084)" fill="#fff"/>
      <path id="Path_1307" data-name="Path 1307" d="M95.453,158.829a10.181,10.181,0,0,0-2.577-2.189,10.9,10.9,0,0,0-3.343-1.323l-10.105-2.356q-2.6-.69-2.6-2.2,0-1.578,2.776-1.579H91.444a2.987,2.987,0,0,0,2.2-1.017,3.449,3.449,0,0,0,.977-2.479,2.456,2.456,0,0,0-1.177-2.013,4.928,4.928,0,0,0-2.555-.62H78.918a10.349,10.349,0,0,0-3.676.633,8.487,8.487,0,0,0-2.865,1.754,7.7,7.7,0,0,0-1.832,2.653,8.661,8.661,0,0,0-.666,3.285,6.531,6.531,0,0,0,1.843,4.85,11.471,11.471,0,0,0,5.619,2.7l8.218,1.953a9.027,9.027,0,0,1,3.809,1.668,4.163,4.163,0,0,1,1.389,3.424,5.258,5.258,0,0,1-.911,3.113,5.577,5.577,0,0,1-2.421,1.934,8.331,8.331,0,0,1-3.309.644H77.963q-.6,0-1.887-.044t-1.932-.045a8.894,8.894,0,0,0-3.41.534,2.519,2.519,0,0,0-1.5,2.11,2.858,2.858,0,0,0,1.921,2.977,15.528,15.528,0,0,0,5.231.71h8.039a14.221,14.221,0,0,0,5.02-.923,13.441,13.441,0,0,0,4.32-2.588,12.178,12.178,0,0,0,2.921-3.958,11.47,11.47,0,0,0,.433-8.59,9.642,9.642,0,0,0-1.666-3.012" transform="translate(-10.688 -22.084)" fill="#fff"/>
      <path id="Path_1308" data-name="Path 1308" d="M134.916,172.369a4.112,4.112,0,0,0-2.388-.711h-1.643a18.735,18.735,0,0,1-6.231-1.312,15.709,15.709,0,0,1-6.4-4.435,12.087,12.087,0,0,1-2.876-8.126,18.443,18.443,0,0,1,.288-3.467,6.55,6.55,0,0,1,1.144-2.658,5.531,5.531,0,0,1,2.543-1.822,12.017,12.017,0,0,1,4.309-.656h8.906a2.758,2.758,0,0,0,2.054-.951,3.044,3.044,0,0,0,.9-2.147q-.066-3.032-3.953-3.032h-9.2q-7.373,0-10.627,3.942a16.878,16.878,0,0,0-3.565,10.206,19.485,19.485,0,0,0,2.976,10.594,20.735,20.735,0,0,0,8.118,7.419,24.008,24.008,0,0,0,11.294,2.687h1.311a4.75,4.75,0,0,0,2.01-.445,3.818,3.818,0,0,0,1.554-1.276,3.246,3.246,0,0,0,.589-1.921,2.429,2.429,0,0,0-1.121-1.888" transform="translate(-16.701 -22.084)" fill="#fff"/>
      <path id="Path_1309" data-name="Path 1309" d="M174.678,165.483q-.9-3.065-1.765-5.286a83.721,83.721,0,0,0-4.839-9.939q-2.952-5.231-3.8-5.608a2.672,2.672,0,0,0-1.432-1.177,5.771,5.771,0,0,0-2.209-.422,5.944,5.944,0,0,0-2.253.455,2.656,2.656,0,0,0-1.431,1.055,4.784,4.784,0,0,0-1.4,1.565q-.977,1.412-2.342,3.788t-2.552,4.8q-1.189,2.421-2.3,5.086a48.155,48.155,0,0,0-1.742,5.341q-.811,3.01-1.265,5.608a24.874,24.874,0,0,0-.455,3.931,1.575,1.575,0,0,0,.178.911,2,2,0,0,0,.81,1.711,3.211,3.211,0,0,0,1.964.6,4.015,4.015,0,0,0,2.43-.677,2.864,2.864,0,0,0,1.12-1.963,1.843,1.843,0,0,0,.1-.6q.056-.576.189-1.674t.288-2q.156-.9.377-1.94.223-.842.355-1.42c.09-.385.2-.846.333-1.386s.252-.979.355-1.319.259-.872.466-1.6a11.621,11.621,0,0,1,1.221-.044,17.233,17.233,0,0,1,4.772.731,14.892,14.892,0,0,1,4.594,2.218,11.857,11.857,0,0,1,4.284,4.99,12.978,12.978,0,0,1,.743,2.051,6.185,6.185,0,0,1,.189.987l.244,1.286a2.772,2.772,0,0,0,.644,1.441,2.622,2.622,0,0,0,1.276.7,7.389,7.389,0,0,0,1.854.211,3.961,3.961,0,0,0,1.986-.777,2.18,2.18,0,0,0,.788-1.821.949.949,0,0,0,.134-.622,20.275,20.275,0,0,0-.511-3.654q-.51-2.475-1.409-5.541m-9.311-4.719q-1.465-.982-1.787-1.159a18.645,18.645,0,0,0-2.253-.759,19.294,19.294,0,0,0-5.638-.737,19.143,19.143,0,0,1,.7-1.965q.3-.677,1.254-2.632a33.2,33.2,0,0,1,2.664-4.4,48.959,48.959,0,0,1,3.373,5.737,46.584,46.584,0,0,1,2.774,6.693Z" transform="translate(-22.37 -22.084)" fill="#fff"/>
      <path id="Path_1310" data-name="Path 1310" d="M210.391,160.552a8.281,8.281,0,0,0-2.438-2.354,7.352,7.352,0,0,0,1.86-1.132,9.154,9.154,0,0,0,2.258-2.754,8.658,8.658,0,0,0,1.063-4.4,6.214,6.214,0,0,0-1.7-4.108,8.3,8.3,0,0,0-3.623-2.144,15.31,15.31,0,0,0-4.3-.611h-12a13.906,13.906,0,0,0-2.2.155,3.322,3.322,0,0,0-1.622.708,3.156,3.156,0,0,0-.736.978,4.228,4.228,0,0,0-.367,1.166,8.088,8.088,0,0,0-.1,1.322v27.01a3.4,3.4,0,0,0,1.036,2.455A3.357,3.357,0,0,0,190,177.9a3.307,3.307,0,0,0,2.374-1,3.455,3.455,0,0,0,.924-2.509V159.065c.089-.015.182-.026.277-.033s.322-.012.678-.012a15.351,15.351,0,0,1,4.431.766,15.833,15.833,0,0,1,7.343,5.653,10.5,10.5,0,0,1,1.322,2.832,13.577,13.577,0,0,1,.5,2.4q.088.967.4,4.454a2.737,2.737,0,0,0,1.211,2.009,4.575,4.575,0,0,0,2.721.767,3.116,3.116,0,0,0,2.252-1.1,4.819,4.819,0,0,0,.7-2.9,21.6,21.6,0,0,0-1.552-7.718,22.183,22.183,0,0,0-3.191-5.631m-5-7.325a5.689,5.689,0,0,1-1.635,1.36,3.441,3.441,0,0,1-1.179.479q-.668-.268-1.158-.446t-1.212-.435q-.723-.256-1.257-.4a9.3,9.3,0,0,0-1.2-.233q-.712-.09-2.258-.357a14.931,14.931,0,0,0-2.192-.268v-3.745h9.523a5.047,5.047,0,0,1,2.3.479,1.732,1.732,0,0,1,1.012,1.527,3.06,3.06,0,0,1-.745,2.04" transform="translate(-28.789 -22.084)" fill="#fff"/>
      <path id="Path_1311" data-name="Path 1311" d="M249.693,144.346a3.144,3.144,0,0,0-1.333-.962,4.9,4.9,0,0,0-1.832-.332H227.694a4.061,4.061,0,0,0-2.71.863,2.84,2.84,0,0,0-1.022,2.28,2.981,2.981,0,0,0,.953,2.114,3.16,3.16,0,0,0,2.282.874h6.471v25.073a3.587,3.587,0,0,0,1.036,2.556,3.309,3.309,0,0,0,2.484,1.089,3.152,3.152,0,0,0,2.34-1.055,3.72,3.72,0,0,0,.914-2.59V149.181h6.4a3.62,3.62,0,0,0,2.41-.9,2.874,2.874,0,0,0,1.055-2.291,3.148,3.148,0,0,0-.611-1.649" transform="translate(-34.575 -22.084)" fill="#fff"/>
      <path id="Path_1312" data-name="Path 1312" d="M25.131,143.893a3.456,3.456,0,0,0-2.432-.867,3.339,3.339,0,0,0-2.4.911,3.135,3.135,0,0,0-.955,2.377v17.3l-7.684-11.564-5.094-7.666a3.33,3.33,0,0,0-4.116-1.21,3.3,3.3,0,0,0-1.608,1.1A3.966,3.966,0,0,0,0,146.846V174.61a3.039,3.039,0,0,0,1,2.354,3.526,3.526,0,0,0,2.466.911,3.578,3.578,0,0,0,2.376-.889,3.041,3.041,0,0,0,.933-2.376V156.765l12.96,19.5a3.263,3.263,0,0,0,.616.674l.006.022.081.047a3.34,3.34,0,0,0,1.532.7,2.939,2.939,0,0,0,.863.164A3.465,3.465,0,0,0,25.187,177a3.115,3.115,0,0,0,.888-2.387V146.358a3.179,3.179,0,0,0-.944-2.465" transform="translate(0 -22.06)" fill="#fff"/>
      <path id="Path_1313" data-name="Path 1313" d="M81.7,226.079a4.512,4.512,0,0,0-2.7-.789H66.211V212.741H78.627a4.1,4.1,0,0,0,1.777-.411,3.321,3.321,0,0,0,1.366-1.155,2.832,2.832,0,0,0,.5-1.61,2.892,2.892,0,0,0-.911-2.088,2.944,2.944,0,0,0-2.132-.866H66.211v-3.8h13.06a3.527,3.527,0,0,0,2.465-.907,2.947,2.947,0,0,0,1-2.279,2.646,2.646,0,0,0-1.065-2.113,3.945,3.945,0,0,0-2.532-.83H63.079a4.123,4.123,0,0,0-2.776.911,2.7,2.7,0,0,0-.9,1.443,9.434,9.434,0,0,0-.189,2.066v25.964a8.043,8.043,0,0,0,.178,1.876,3.737,3.737,0,0,0,.777,1.455,3.978,3.978,0,0,0,3.043,1.132h16.1a3.56,3.56,0,0,0,2.565-.944,3.16,3.16,0,0,0,.989-2.387,2.657,2.657,0,0,0-1.166-2.122" transform="translate(-9.141 -30.363)" fill="#fff"/>
      <path id="Path_1314" data-name="Path 1314" d="M122.552,219.115q-.9-3.065-1.765-5.286a83.721,83.721,0,0,0-4.839-9.939q-2.952-5.231-3.8-5.608a2.673,2.673,0,0,0-1.432-1.177,5.771,5.771,0,0,0-2.209-.422,5.944,5.944,0,0,0-2.253.455,2.657,2.657,0,0,0-1.431,1.055,4.784,4.784,0,0,0-1.4,1.565q-.977,1.412-2.342,3.788t-2.552,4.8q-1.189,2.421-2.3,5.086a48.157,48.157,0,0,0-1.742,5.341q-.811,3.01-1.265,5.608a24.875,24.875,0,0,0-.455,3.931,1.575,1.575,0,0,0,.178.911,2,2,0,0,0,.81,1.711,3.21,3.21,0,0,0,1.964.6,4.015,4.015,0,0,0,2.43-.676,2.864,2.864,0,0,0,1.12-1.963,1.844,1.844,0,0,0,.1-.6q.056-.576.189-1.674t.288-2q.156-.9.377-1.94.223-.842.355-1.42c.09-.385.2-.846.333-1.386s.252-.979.355-1.319.259-.872.466-1.6a11.622,11.622,0,0,1,1.221-.044,17.234,17.234,0,0,1,4.772.731,14.891,14.891,0,0,1,4.594,2.218,11.857,11.857,0,0,1,4.284,4.99,12.98,12.98,0,0,1,.743,2.051,6.185,6.185,0,0,1,.189.987l.244,1.286a2.772,2.772,0,0,0,.644,1.441,2.622,2.622,0,0,0,1.276.7,7.389,7.389,0,0,0,1.854.211,3.961,3.961,0,0,0,1.986-.777,2.18,2.18,0,0,0,.788-1.821.955.955,0,0,0,.134-.622,20.275,20.275,0,0,0-.511-3.654q-.51-2.475-1.409-5.541m-9.311-4.719q-1.465-.982-1.787-1.159a18.646,18.646,0,0,0-2.253-.759,19.3,19.3,0,0,0-5.638-.737,19.139,19.139,0,0,1,.7-1.965q.3-.677,1.254-2.632a33.2,33.2,0,0,1,2.664-4.4,48.957,48.957,0,0,1,3.373,5.737,46.624,46.624,0,0,1,2.774,6.693Z" transform="translate(-14.323 -30.363)" fill="#fff"/>
      <path id="Path_1315" data-name="Path 1315" d="M153.688,197.978a3.144,3.144,0,0,0-1.333-.962,4.9,4.9,0,0,0-1.832-.332H131.689a4.061,4.061,0,0,0-2.71.863,2.84,2.84,0,0,0-1.022,2.28,2.981,2.981,0,0,0,.953,2.114,3.16,3.16,0,0,0,2.282.874h6.471v25.073a3.587,3.587,0,0,0,1.036,2.556,3.309,3.309,0,0,0,2.484,1.089,3.152,3.152,0,0,0,2.34-1.055,3.72,3.72,0,0,0,.914-2.59V202.813h6.4a3.62,3.62,0,0,0,2.41-.9,2.874,2.874,0,0,0,1.055-2.291,3.148,3.148,0,0,0-.611-1.649" transform="translate(-19.754 -30.363)" fill="#fff"/>
      <path id="Path_1316" data-name="Path 1316" d="M188.392,212.461a10.181,10.181,0,0,0-2.577-2.189,10.9,10.9,0,0,0-3.343-1.323l-10.105-2.356q-2.6-.69-2.6-2.2,0-1.578,2.776-1.579h11.838a2.987,2.987,0,0,0,2.2-1.017,3.449,3.449,0,0,0,.977-2.479,2.456,2.456,0,0,0-1.177-2.013,4.928,4.928,0,0,0-2.555-.62H171.857a10.349,10.349,0,0,0-3.676.633,8.487,8.487,0,0,0-2.865,1.754,7.7,7.7,0,0,0-1.832,2.653,8.661,8.661,0,0,0-.666,3.285,6.531,6.531,0,0,0,1.843,4.85,11.471,11.471,0,0,0,5.619,2.7l8.218,1.953a9.026,9.026,0,0,1,3.809,1.668,4.163,4.163,0,0,1,1.389,3.424,5.258,5.258,0,0,1-.911,3.113,5.577,5.577,0,0,1-2.421,1.934,8.331,8.331,0,0,1-3.309.644H170.9q-.6,0-1.887-.044t-1.932-.045a8.894,8.894,0,0,0-3.41.534,2.519,2.519,0,0,0-1.5,2.11,2.858,2.858,0,0,0,1.921,2.977,15.527,15.527,0,0,0,5.231.71h8.039a14.221,14.221,0,0,0,5.02-.923,13.441,13.441,0,0,0,4.32-2.588,12.178,12.178,0,0,0,2.921-3.958,11.47,11.47,0,0,0,.433-8.59,9.642,9.642,0,0,0-1.666-3.012" transform="translate(-25.036 -30.363)" fill="#fff"/>
    </g>
  </g>
</svg>
