<svg xmlns="http://www.w3.org/2000/svg" width="62" height="62" viewBox="0 0 62 62">
  <g id="Message" transform="translate(-330 -1860)">
    <circle id="Ellipse_54" data-name="Ellipse 54" cx="31" cy="31" r="31" transform="translate(330 1860)" fill="#ef9244"/>
    <path id="Subtraction_3" data-name="Subtraction 3" d="M17.477,24.468h0l-6.989-5.242H3.5a3.5,3.5,0,0,1-3.5-3.5V3.5A3.5,3.5,0,0,1,3.5,0H24.468a3.5,3.5,0,0,1,3.5,3.5V15.729a3.5,3.5,0,0,1-3.5,3.5H17.477v5.243ZM6.035,10.305a1.55,1.55,0,0,0,0,3.1H16.369a1.55,1.55,0,0,0,0-3.1Zm0-5.167a1.55,1.55,0,0,0,0,3.1H22.569a1.55,1.55,0,0,0,0-3.1Z" transform="translate(347.214 1879.661)" fill="#fff"/>
  </g>
</svg>
