<svg xmlns="http://www.w3.org/2000/svg" width="15.807" height="16.542" viewBox="0 0 15.807 16.542"><path d="M17.607,3.687c-.271-.235-1.752-1.591-2.028-1.83A1.554,1.554,0,0,0,14.567,1.6H5.723a1.557,1.557,0,0,0-1.013.257c-.277.239-1.757,1.6-2.028,1.83a1.17,1.17,0,0,0-.426,1.1c.072.507,1.737,12.554,1.78,12.841a.615.615,0,0,0,.6.518H15.659a.616.616,0,0,0,.6-.519c.043-.286,1.708-12.335,1.781-12.841a1.172,1.172,0,0,0-.427-1.095Zm-7.463,8c-2.985,0-3.624-4.224-3.756-5.094H8.076c.254,1.269.831,3.44,2.068,3.44s1.815-2.172,2.068-3.44H13.9c-.133.87-.772,5.094-3.757,5.094ZM3.867,4.363,5.549,2.519h9.19l1.682,1.844H3.867Z" transform="translate(-2.242 -1.6)"/></svg>