<svg xmlns="http://www.w3.org/2000/svg" width="114" height="114" viewBox="0 0 114 114">
  <g id="Reach_New_Customers" data-name="Reach New Customers" transform="translate(-690 -1529)">
    <circle id="Ellipse_7" data-name="Ellipse 7" cx="57" cy="57" r="57" transform="translate(690 1529)" fill="#fff"/>
    <path id="Union_1" data-name="Union 1" d="M8.668,54.748c-.021-11.629,9.781-21.161,21.542-21.3,12.226-.147,22.17,9.62,22.128,21.3ZM0,44.186A14.8,14.8,0,0,1,7.719,31.1c5.07-2.982,11.9-2.713,16.028.335-2.446,1.3-5.093,2.5-7.513,4.049A22.406,22.406,0,0,0,9.165,43.3c-.216.366-.664.842-1.017.851-1.389.037-2.778.046-4.192.046C2.664,44.193,1.351,44.186,0,44.186Zm52.733-.04a1.147,1.147,0,0,1-.753-.577c-3.279-5.959-8.288-9.83-15.153-11.951,5.3-3.1,10.513-3.489,15.765-.882,5.462,2.711,8.1,7.3,8.511,13.436l-3.653,0C55.865,44.175,54.3,44.17,52.733,44.146ZM30.4,29.318A14.853,14.853,0,0,1,15.581,14.575a14.934,14.934,0,0,1,29.862.081A14.822,14.822,0,0,1,30.421,29.318Zm13.745-3.307c4.965-6.666,5.484-13.472,1.485-20.715a10.182,10.182,0,0,1,8.982,5.032,9.767,9.767,0,0,1-.43,11.3c-2.158,3.115-5.262,4.407-9.181,4.407Q44.583,26.031,44.149,26.011ZM7.2,22.115A9.852,9.852,0,0,1,6.144,10.846c1.874-3.587,5.014-5.357,9.286-5.568C11.4,12.5,11.893,19.3,16.747,25.807a7.251,7.251,0,0,1-1.737.2A10.27,10.27,0,0,1,7.2,22.115Z" transform="translate(716 1559)" stroke="rgba(0,0,0,0)" stroke-miterlimit="10" stroke-width="1"/>
  </g>
</svg>
