<svg xmlns="http://www.w3.org/2000/svg" width="18.904" height="16.542" viewBox="0 0 18.904 16.542">
  <path id="Subtraction_8" data-name="Subtraction 8" d="M11.815,16.542h0L7.089,13H2.363A2.365,2.365,0,0,1,0,10.634V2.363A2.366,2.366,0,0,1,2.363,0H16.542A2.366,2.366,0,0,1,18.9,2.363v8.271A2.365,2.365,0,0,1,16.542,13H11.815v3.545Zm2.637-8.814h0l1.344.713L15.55,6.933l1.1-1.07-1.51-.22-.686-1.372-.686,1.372-1.509.22,1.1,1.07-.247,1.509,1.344-.713Zm-5,0h0l1.344.713L10.55,6.933l1.1-1.07-1.509-.22L9.453,4.271,8.766,5.643l-1.509.22,1.1,1.07L8.107,8.442l1.345-.713Zm-5,0h0L5.8,8.442,5.55,6.933l1.1-1.07-1.509-.22L4.452,4.271,3.767,5.643l-1.509.22,1.1,1.07L3.108,8.442l1.344-.713Z"/>
</svg>
