<svg xmlns="http://www.w3.org/2000/svg" width="43" height="43" viewBox="0 0 43 43">
  <g id="Reviews" transform="translate(-6114 -821)">
    <rect id="Rectangle_47" data-name="Rectangle 47" width="43" height="43" rx="6" transform="translate(6114 821)" fill="#ffd1cc"/>
    <path id="Subtraction_8" data-name="Subtraction 8" d="M13.065,18.542h0L7.839,14.568H2.612A2.633,2.633,0,0,1,0,11.92V2.649A2.634,2.634,0,0,1,2.612,0h15.68A2.634,2.634,0,0,1,20.9,2.649V11.92a2.633,2.633,0,0,1-2.612,2.648H13.065v3.974Zm2.916-9.879h0l1.486.8L17.2,7.771l1.214-1.2-1.67-.246-.758-1.538-.758,1.538-1.669.246,1.213,1.2-.273,1.692,1.486-.8Zm-5.528,0h0l1.486.8-.274-1.692,1.214-1.2-1.669-.246-.758-1.538L9.693,6.325l-1.669.246,1.214,1.2L8.965,9.463l1.487-.8Zm-5.529,0h0l1.486.8L6.137,7.771l1.213-1.2L5.682,6.325,4.923,4.787,4.165,6.325,2.5,6.571l1.213,1.2L3.436,9.463l1.486-.8Z" transform="translate(6125 835)"/>
  </g>
</svg>
