<svg xmlns="http://www.w3.org/2000/svg" width="26.884" height="26.883" viewBox="0 0 26.884 26.883">
  <path id="Settings" d="M26.853,16a4.578,4.578,0,0,1,2.587-3.909,14.321,14.321,0,0,0-1.107-2.675A4.326,4.326,0,0,1,24,8,4.181,4.181,0,0,1,22.9,3.665a13.989,13.989,0,0,0-2.675-1.106A5.067,5.067,0,0,1,16,5.143a5.071,5.071,0,0,1-4.229-2.584A13.953,13.953,0,0,0,9.1,3.665,4.177,4.177,0,0,1,8,8,4.323,4.323,0,0,1,3.665,9.416a14.119,14.119,0,0,0-1.106,2.675A4.575,4.575,0,0,1,5.143,16a5.073,5.073,0,0,1-2.584,4.229A14.239,14.239,0,0,0,3.665,22.9,4.182,4.182,0,0,1,8,23.995,4.184,4.184,0,0,1,9.1,28.333a14.14,14.14,0,0,0,2.675,1.109A5.06,5.06,0,0,1,16,26.855a5.07,5.07,0,0,1,4.229,2.587A14.384,14.384,0,0,0,22.9,28.333,4.182,4.182,0,0,1,24,23.995a4.337,4.337,0,0,1,4.338-1.413,14.106,14.106,0,0,0,1.107-2.675A4.575,4.575,0,0,1,26.853,16ZM16,21.843A5.845,5.845,0,1,1,21.843,16,5.843,5.843,0,0,1,16,21.843Z" transform="translate(-2.559 -2.559)"/>
</svg>
